<?xml version="1.0" encoding="utf-8" ?>
<svg xmlns="http://www.w3.org/2000/svg" xmlns:xlink="http://www.w3.org/1999/xlink" width="1820" height="1024">
	<path fill="#ECF1AC" d="M1283.95 129.077C1295.48 126.735 1305.77 119.97 1316.62 115.654C1344.86 104.421 1382.56 105.026 1411.57 112.748C1418.43 114.572 1440.8 121.917 1444.13 127.654C1446.79 128.701 1449.26 129.478 1451.06 131.838C1458.44 134.096 1480.05 149.61 1483.89 156.535C1483.97 156.692 1484.01 156.874 1484.07 157.044C1490.93 159.016 1503.93 179.993 1507.46 186.414C1516.54 202.881 1534.22 247.785 1529.07 265.769C1528.6 267.405 1527.67 268.411 1526.4 269.478C1529.33 273.047 1528.5 278.294 1528.08 282.612C1526.29 300.689 1519.2 322.509 1508.92 337.521C1571.6 352.332 1613.75 387.373 1647.48 441.804C1701.04 528.239 1713.87 638.44 1690.73 736.495C1688.86 744.41 1683.82 770.06 1677.69 774.319C1689.32 792.862 1687.99 820.779 1683.24 841.3C1677.35 866.738 1661.73 894.316 1639.19 908.487C1637.91 909.296 1636.54 909.945 1635.13 910.506C1634.31 912.52 1632.6 913.688 1630.66 914.563C1629.75 914.972 1628.82 915.266 1627.86 915.528L1626.23 916.71C1618.91 925.99 1600.34 926.915 1589.99 932.095C1604.75 933.243 1620.03 932.662 1634.87 932.802Q1677.16 933.027 1719.45 933.779C1734 934.04 1753.88 931.793 1767.37 937.043C1753.25 942.431 1680.54 942.633 1662.27 943.081Q1494.77 946.541 1327.24 946.839Q949.228 949.213 571.206 947.603Q440.712 947.801 310.243 945.181Q215.529 945.083 120.859 942.186C112.878 941.866 68.5192 941.663 64.1209 936.898C64.2913 936.727 64.4536 936.548 64.6319 936.386C69.9502 931.542 168.075 931.467 182.942 931.498C167.7 924.813 153 921.341 138.949 911.655L137.022 910.142C123.733 898.829 111.674 886.116 103.028 870.851C83.9586 837.184 85.1248 802.597 95.1573 766.315C94.0351 763.133 93.1711 759.825 92.3803 756.546C87.4525 736.112 86.1507 713.142 85.9152 692.138C84.9034 601.884 112.33 515.255 159.008 438.587C253.588 283.238 425.741 170.442 600.754 127.911C745.342 92.7738 895.588 102.137 1031.07 165.344C1056.55 177.232 1081.23 191.359 1105.17 206.09C1125.89 218.847 1146.36 233.128 1165.4 248.315C1179.23 259.352 1192.48 272.326 1207.61 281.553C1207.7 281.458 1207.79 281.362 1207.89 281.268C1209.32 279.855 1209.79 278.519 1210.07 276.569C1210.9 270.733 1210.32 264.293 1210.4 258.383C1210.56 246.25 1212.03 234.65 1215.25 222.933C1225.22 186.716 1250.77 147.913 1283.95 129.077Z"/>
	<path fill="#806388" d="M1123.87 538.582C1124.35 537.527 1124.94 536.642 1125.57 535.677C1129.01 534.27 1132.44 533.957 1136.14 533.923C1171.24 533.602 1206.57 534.707 1241.7 534.856C1261.31 534.94 1438.19 533.726 1444.09 536.059L1444.46 537.662C1446.97 539.416 1447.64 541.932 1448.13 544.805C1449.07 550.415 1449.74 556.14 1450.5 561.779C1450.07 569.652 1470.17 671.774 1474.1 680.159C1478.59 686.561 1485.99 717.695 1484.54 725.066C1484.43 725.611 1484.39 725.668 1484.2 726.243C1486.23 728.894 1487.08 731.918 1487.89 735.112C1494.72 761.928 1499.14 789.701 1504.86 816.798C1507.06 827.185 1517.33 866.242 1516.86 874.181C1516.8 875.197 1516.4 876.318 1515.99 877.238C1507.14 881.414 1470.09 878.043 1457.94 878.051C1459.94 872.296 1456.23 860.499 1453.21 855.223C1452.82 854.536 1452.37 854.195 1451.77 853.703C1449.82 856.824 1451.21 862.218 1451.97 865.59C1452.82 869.335 1454.05 872.599 1453.61 876.497C1448.99 879.545 1419.18 878.111 1411.89 878.024C1393.18 878.677 1374.39 878.303 1355.67 878.265C1355.93 877.544 1355.98 877.55 1356.01 876.649C1356.14 872.998 1351.9 864.831 1349.53 862.176C1349.83 861.867 1350.24 861.47 1350.5 861.114C1353.34 857.365 1356.63 850.057 1355.88 845.261L1354.21 844.478C1350.54 849.196 1350.73 856.94 1346.39 860.993C1346.26 861.118 1346.11 861.231 1345.97 861.35C1347.95 865.661 1352.41 873.129 1350.83 877.855C1350.78 877.998 1350.72 878.136 1350.67 878.277L1226.25 878.059C1201.03 877.977 1175.93 877.318 1150.71 878.147C1149.94 879.389 1149.44 880.142 1148.24 881.03C1147.93 881.701 1147.6 882.349 1147.19 882.967C1143.89 887.909 1134.77 891.136 1129.18 892.258C1115.25 895.054 1104.07 887.239 1093.02 880.039L1091.12 878.19C1077.62 878.55 1064.42 879.229 1051.02 877.196C1053.76 874.58 1054.72 868.506 1055.62 864.921C1057.8 856.242 1067.05 822.467 1063.17 815.945C1065.03 814.765 1066.03 813.566 1066.86 811.527C1069.75 804.434 1072.75 792.057 1069.82 784.809C1071.89 783.528 1072.61 781.958 1073.4 779.726C1077.74 767.456 1079 753.826 1081.89 741.113C1087.18 717.746 1095.13 693.495 1097.34 669.631C1097.54 667.511 1097.32 665.803 1096.42 663.865C1097.06 663.279 1097.58 662.785 1098 662.014C1103 652.702 1125.9 544.861 1123.87 538.582Z"/>
	<path fill="#FEFEFE" d="M1348.94 802.525C1354.14 788.375 1355.29 776.142 1370.66 768.85Q1371.37 768.517 1372.09 768.219Q1372.81 767.921 1373.55 767.66Q1374.29 767.398 1375.04 767.172Q1375.79 766.947 1376.55 766.759Q1377.31 766.571 1378.07 766.42Q1378.84 766.27 1379.62 766.157Q1380.39 766.044 1381.17 765.97Q1381.95 765.895 1382.73 765.859Q1383.51 765.823 1384.29 765.825Q1385.07 765.828 1385.85 765.868Q1386.64 765.909 1387.41 765.988Q1388.19 766.068 1388.97 766.185Q1389.74 766.302 1390.51 766.457Q1391.27 766.613 1392.03 766.805Q1392.79 766.998 1393.54 767.228Q1394.28 767.458 1395.02 767.724C1404.44 771.143 1412.01 778.559 1416.15 787.639C1419.93 795.948 1420.89 806.28 1417.45 814.871Q1417 815.992 1416.45 817.069Q1415.9 818.147 1415.25 819.171Q1414.61 820.196 1413.88 821.16Q1413.15 822.124 1412.34 823.02Q1411.53 823.917 1410.64 824.738Q1409.75 825.559 1408.79 826.299Q1407.84 827.039 1406.82 827.692Q1405.8 828.345 1404.73 828.906C1412.64 833.462 1417.3 840.541 1419.58 849.344C1421.65 857.33 1421.35 865.728 1417.06 872.917C1415.75 875.11 1414.28 876.96 1411.89 878.024C1393.18 878.677 1374.39 878.303 1355.67 878.265C1355.93 877.544 1355.98 877.55 1356.01 876.649C1356.14 872.998 1351.9 864.831 1349.53 862.176C1349.83 861.867 1350.24 861.47 1350.5 861.114C1353.34 857.365 1356.63 850.057 1355.88 845.261L1354.21 844.478C1350.54 849.196 1350.73 856.94 1346.39 860.993C1346.26 861.118 1346.11 861.231 1345.97 861.35C1347.95 865.661 1352.41 873.129 1350.83 877.855C1350.78 877.998 1350.72 878.136 1350.67 878.277L1226.25 878.059C1201.03 877.977 1175.93 877.318 1150.71 878.147C1149.94 879.389 1149.44 880.142 1148.24 881.03C1147.93 881.701 1147.6 882.349 1147.19 882.967C1143.89 887.909 1134.77 891.136 1129.18 892.258C1115.25 895.054 1104.07 887.239 1093.02 880.039L1091.12 878.19C1093.1 870.768 1084.76 862.079 1088.05 852.123C1091.34 842.117 1101.19 836.643 1103.59 830.508C1103.72 830.191 1103.82 829.868 1103.94 829.548C1103.67 822.86 1092 813.95 1090.44 804.598C1089.13 796.768 1092.22 786.654 1096.87 780.334C1102.09 773.232 1110.44 768.802 1119.11 767.666Q1119.99 767.559 1120.88 767.495Q1121.76 767.432 1122.65 767.412Q1123.53 767.392 1124.42 767.416Q1125.31 767.44 1126.19 767.508Q1127.08 767.576 1127.96 767.687Q1128.84 767.799 1129.71 767.953Q1130.58 768.108 1131.45 768.305Q1132.31 768.503 1133.17 768.743Q1134.02 768.983 1134.86 769.264Q1135.7 769.546 1136.53 769.869Q1137.36 770.192 1138.17 770.556Q1138.98 770.919 1139.77 771.322Q1140.56 771.725 1141.33 772.166Q1142.1 772.607 1142.84 773.086Q1143.59 773.565 1144.31 774.08Q1145.03 774.595 1145.73 775.145C1151.3 779.497 1156.08 785.636 1156.8 792.874C1157.58 800.682 1148.7 816.603 1143.74 822.702C1154.16 818.073 1153.27 810.56 1159.11 802.409C1162.83 801.307 1166.6 800.915 1170.46 800.781C1185.79 800.25 1341.47 799.72 1345.54 801.639L1346.13 803.674L1348.94 802.525Z"/>
	<path fill="#806388" d="M1154.24 859.41C1155.83 861.388 1155.79 863.464 1157.66 864.799L1158.84 864.357C1159.07 862.531 1159.21 861.38 1158.5 859.656C1161.63 861.95 1163.64 862.154 1167.48 862.36C1181.69 863.122 1196.13 862.314 1210.36 862.236L1287.25 862.14L1326.64 862.26C1331.84 862.305 1338.11 863.246 1343.15 862.437C1344.43 862.233 1345.02 862.225 1345.97 861.35C1347.95 865.661 1352.41 873.129 1350.83 877.855C1350.78 877.998 1350.72 878.136 1350.67 878.277L1226.25 878.059C1201.03 877.977 1175.93 877.318 1150.71 878.147C1152.64 876.511 1154.02 874.783 1155.06 872.483C1156.93 868.339 1155.71 863.485 1154.24 859.41Z"/>
	<path fill="#4F195E" d="M1346.13 803.674L1348.94 802.525C1352.55 804.701 1355.79 810.25 1356.78 814.328C1357.37 816.811 1357.8 819.246 1357.25 821.769L1356.47 822.079C1350.64 817.317 1349.7 809.836 1346.13 803.674Z"/>
	<path fill="#4F195E" d="M1154.24 859.41C1154.29 859.256 1154.34 859.104 1154.38 858.949C1155.43 854.622 1150.81 848.059 1154.35 844.951C1156.79 846.711 1158.95 851.884 1159.34 854.869C1159.56 856.518 1159.04 858.12 1158.5 859.656C1159.21 861.38 1159.07 862.531 1158.84 864.357L1157.66 864.799C1155.79 863.464 1155.83 861.388 1154.24 859.41Z"/>
	<path fill="#4F195E" d="M1123.87 538.582C1124.35 537.527 1124.94 536.642 1125.57 535.677C1129.01 534.27 1132.44 533.957 1136.14 533.923C1171.24 533.602 1206.57 534.707 1241.7 534.856C1261.31 534.94 1438.19 533.726 1444.09 536.059L1444.46 537.662C1442.98 539.491 1442.5 539.378 1440.27 539.613C1429.6 540.738 1389.79 535.433 1384.23 541.013C1383.93 541.81 1383.68 542.701 1383.77 543.563C1384.13 547.178 1386.11 551.679 1387.01 555.337C1389.31 564.65 1391.27 574.061 1393.29 583.438L1417.02 694.342C1419.23 704.399 1428.57 735.277 1426.78 743.915L1425.58 744.393C1424.05 743.182 1423.37 741.696 1422.79 739.882C1420.49 732.695 1420.07 724.679 1418.44 717.281L1394.65 610.629C1390.88 593.182 1388.16 575.348 1383.88 558.042C1382.74 553.438 1380.82 542.914 1377.58 539.729C1356.38 537.89 1334.06 539.584 1312.73 539.571L1181.16 539.436C1163.67 539.456 1140.69 542.581 1123.87 538.582Z"/>
	<path fill="#4F195E" d="M1272.33 665.893C1274.63 658.975 1262.61 640.688 1273 618.653C1277.16 609.829 1285.22 601.664 1294.55 598.413C1299.95 596.53 1305.59 596.575 1310.73 599.208C1317.69 602.769 1322.09 610.321 1324.24 617.586C1327.84 629.796 1325.92 644.148 1319.74 655.216C1314.44 664.695 1306.99 669.929 1296.69 672.862C1298.66 673.546 1300.57 674.401 1302.45 675.311C1305.56 676.813 1309.54 678.865 1310.76 682.33C1313.48 679.936 1314.81 675.563 1316.5 672.333C1320.75 664.22 1325.61 658.522 1334.75 655.811C1339.58 654.381 1344.62 654.695 1349.02 657.221C1354.17 660.172 1357.6 665.419 1359.02 671.115C1360.83 678.371 1359.44 686.486 1355.58 692.862C1350.71 700.922 1343.33 704.515 1334.45 706.597C1334.56 706.707 1334.67 706.816 1334.78 706.928C1341.19 713.695 1343.94 728.288 1343.78 737.357C1343.71 741.469 1343.44 745.557 1340.33 748.555C1340.52 751.605 1339.83 754.808 1338.57 757.59C1334.06 767.507 1323.34 772.728 1313.73 776.456C1313.65 776.244 1313.61 776.014 1313.5 775.82C1310.76 771.12 1303.43 768.169 1298.61 766.177C1274.87 756.382 1253.79 755.793 1230.06 765.929C1223 768.946 1216.34 772.789 1209.26 775.747C1206.83 771.756 1196.42 768.632 1192.4 764.725C1181.08 753.723 1180.57 736.472 1185.24 722.405C1186.68 718.085 1189.57 712.795 1189.48 708.236C1189.47 708.065 1189.46 707.893 1189.45 707.722C1187.3 704.49 1174.74 700.845 1170.31 695.43C1165.79 689.886 1162.8 680.391 1163.63 673.255C1164.26 667.842 1167.13 663.217 1171.45 659.953Q1171.9 659.605 1172.37 659.281Q1172.84 658.956 1173.32 658.656Q1173.81 658.356 1174.31 658.081Q1174.8 657.805 1175.32 657.556Q1175.83 657.306 1176.35 657.083Q1176.88 656.86 1177.41 656.664Q1177.95 656.468 1178.49 656.299Q1179.04 656.13 1179.59 655.99Q1180.14 655.849 1180.7 655.737Q1181.26 655.624 1181.82 655.54Q1182.38 655.456 1182.95 655.401Q1183.52 655.346 1184.09 655.32Q1184.66 655.294 1185.23 655.297Q1185.8 655.3 1186.37 655.331Q1186.93 655.363 1187.5 655.424Q1188.07 655.485 1188.63 655.574C1195.45 656.636 1203.39 660.615 1207.45 666.339C1210.24 670.273 1212.77 676.295 1211.93 681.157C1216.12 679.592 1222.85 677.682 1224.88 673.348C1220.93 666.109 1208.87 666.171 1201.79 646.197C1198.02 635.546 1197.17 622.277 1202.31 611.912C1206.19 604.078 1211.38 600.476 1219.49 597.777L1220 597.779C1229.57 597.895 1236.61 600.828 1243.28 607.834C1252.28 617.279 1257.13 631.077 1256.82 644.046C1256.64 651.868 1254.24 660.327 1248.41 665.813Q1260.37 665.478 1272.33 665.893Z"/>
	<path fill="#4F195E" d="M1429.27 763.987C1430.35 764.051 1431.42 764.28 1432.48 764.456C1433.69 766.387 1434.36 768.339 1434.99 770.515C1437.26 778.351 1445.93 814.197 1444.71 820.4C1444.58 821.078 1443.65 822.323 1443.28 822.98C1437.02 819.687 1432.6 772.935 1429.27 763.987Z"/>
	<path fill="#FEFEFE" d="M643.901 527.311C657.391 533.559 670.828 539.882 683.78 547.199C709.441 561.695 747.327 589.587 777.317 590.483C783.829 587.943 786.38 586.259 789.9 580.205C815.774 596.428 840.701 619.329 847.835 650.152Q848.569 653.352 849.03 656.603Q849.49 659.853 849.674 663.131Q849.858 666.409 849.763 669.691Q849.669 672.973 849.297 676.235Q861.846 684.631 874.17 693.354C876.5 695.946 877.801 697.551 878.497 701.063C873.399 739.902 855.708 770.91 826.45 796.9C818.567 803.902 809.19 809.558 801.703 816.891C811.653 822.43 817.474 827.456 821.01 838.68C821.135 848.452 819.602 857.053 812.548 864.322Q812.035 864.844 811.496 865.341Q810.958 865.837 810.395 866.306Q809.833 866.776 809.248 867.217Q808.664 867.658 808.058 868.07Q807.453 868.481 806.828 868.863Q806.203 869.245 805.56 869.595Q804.917 869.945 804.257 870.264Q803.598 870.582 802.923 870.868Q802.249 871.153 801.562 871.405Q800.874 871.657 800.175 871.875Q799.476 872.093 798.767 872.277Q798.058 872.46 797.341 872.608Q796.624 872.757 795.9 872.87Q795.177 872.983 794.449 873.06Q793.72 873.137 792.989 873.178Q792.258 873.22 791.526 873.225Q790.825 873.234 790.125 873.208Q789.424 873.182 788.726 873.121Q788.028 873.059 787.333 872.963Q786.639 872.867 785.951 872.737Q785.262 872.606 784.581 872.441Q783.899 872.276 783.227 872.077Q782.555 871.878 781.894 871.646Q781.232 871.414 780.584 871.148Q779.935 870.883 779.3 870.586Q778.665 870.289 778.046 869.96Q777.427 869.631 776.825 869.272Q776.223 868.913 775.64 868.524Q775.057 868.135 774.494 867.717Q773.931 867.3 773.389 866.854Q772.848 866.409 772.33 865.937Q771.811 865.465 771.317 864.968C765.924 859.628 763.5 853.276 761.599 846.083C710.616 874.887 650.005 886.823 591.794 882.447C581.434 875.114 566.1 856.684 562.491 844.373C556.93 838.465 550.107 826.337 548.174 818.305C558.865 821.119 571.013 824.917 581.907 821.102Q582.456 820.912 582.995 820.694Q583.534 820.476 584.06 820.231Q584.587 819.986 585.101 819.714Q585.615 819.442 586.114 819.145Q586.613 818.847 587.096 818.524Q587.579 818.201 588.045 817.854Q588.511 817.507 588.959 817.137Q589.406 816.766 589.835 816.373Q590.263 815.98 590.67 815.566Q591.078 815.152 591.464 814.717Q591.85 814.283 592.213 813.829Q592.576 813.375 592.915 812.904Q593.255 812.432 593.57 811.943Q593.885 811.455 594.174 810.951Q594.464 810.447 594.727 809.929Q594.99 809.411 595.227 808.88C601.902 794.071 593.255 773.708 588.08 759.531C583.512 749.757 580.055 739.288 575.848 729.327Q566.113 706.755 554.94 684.86Q544.646 664.472 533.808 644.368C530.007 637.337 524.914 629.857 522.236 622.348C532.886 608.641 543.766 595.781 556.192 583.636C566.894 568.47 585.592 557.656 601.434 548.814C613.6 538.628 629.823 534.174 643.901 527.311Z"/>
	<path fill="#4F195E" d="M849.297 676.235Q861.846 684.631 874.17 693.354C876.5 695.946 877.801 697.551 878.497 701.063C873.399 739.902 855.708 770.91 826.45 796.9C818.567 803.902 809.19 809.558 801.703 816.891C811.653 822.43 817.474 827.456 821.01 838.68C821.135 848.452 819.602 857.053 812.548 864.322Q812.035 864.844 811.496 865.341Q810.958 865.837 810.395 866.306Q809.833 866.776 809.248 867.217Q808.664 867.658 808.058 868.07Q807.453 868.481 806.828 868.863Q806.203 869.245 805.56 869.595Q804.917 869.945 804.257 870.264Q803.598 870.582 802.923 870.868Q802.249 871.153 801.562 871.405Q800.874 871.657 800.175 871.875Q799.476 872.093 798.767 872.277Q798.058 872.46 797.341 872.608Q796.624 872.757 795.9 872.87Q795.177 872.983 794.449 873.06Q793.72 873.137 792.989 873.178Q792.258 873.22 791.526 873.225Q790.825 873.234 790.125 873.208Q789.424 873.182 788.726 873.121Q788.028 873.059 787.333 872.963Q786.639 872.867 785.951 872.737Q785.262 872.606 784.581 872.441Q783.899 872.276 783.227 872.077Q782.555 871.878 781.894 871.646Q781.232 871.414 780.584 871.148Q779.935 870.883 779.3 870.586Q778.665 870.289 778.046 869.96Q777.427 869.631 776.825 869.272Q776.223 868.913 775.64 868.524Q775.057 868.135 774.494 867.717Q773.931 867.3 773.389 866.854Q772.848 866.409 772.33 865.937Q771.811 865.465 771.317 864.968C765.924 859.628 763.5 853.276 761.599 846.083C710.616 874.887 650.005 886.823 591.794 882.447C581.434 875.114 566.1 856.684 562.491 844.373C611.605 853.173 685.937 832.851 731.504 811.274C742.996 805.833 753.429 798.204 764.898 792.56C763.066 789.673 759.625 785.436 760.111 781.878C760.447 779.419 761.295 778.984 763.193 777.714C768.742 776.915 772.467 779.271 777.186 781.889C811.987 754.082 840.392 720.858 849.297 676.235Z"/>
	<path fill="#F9C660" d="M797.339 819.782C800.572 820.78 804.073 822.354 806.84 824.312Q807.315 824.646 807.773 825.003Q808.232 825.36 808.672 825.739Q809.111 826.118 809.532 826.519Q809.953 826.919 810.353 827.34Q810.753 827.761 811.132 828.201Q811.51 828.642 811.867 829.1Q812.224 829.559 812.557 830.034Q812.89 830.51 813.2 831.002Q813.509 831.493 813.794 831.999Q814.078 832.506 814.337 833.026Q814.596 833.545 814.83 834.077Q815.063 834.609 815.269 835.152Q815.475 835.695 815.655 836.248Q815.834 836.8 815.986 837.361Q816.137 837.922 816.261 838.489Q816.385 839.057 816.48 839.63Q816.582 840.253 816.653 840.88Q816.724 841.508 816.764 842.138Q816.804 842.768 816.813 843.399Q816.822 844.031 816.8 844.661Q816.779 845.293 816.726 845.922Q816.673 846.551 816.589 847.177Q816.506 847.802 816.392 848.423Q816.278 849.044 816.133 849.659Q815.989 850.274 815.814 850.88Q815.64 851.487 815.435 852.084Q815.231 852.682 814.998 853.269Q814.765 853.855 814.503 854.43Q814.242 855.004 813.952 855.565Q813.663 856.126 813.346 856.673Q813.029 857.219 812.686 857.749Q812.343 858.279 811.974 858.791Q811.621 859.294 811.243 859.778Q810.865 860.263 810.464 860.728Q810.062 861.193 809.638 861.637Q809.213 862.082 808.767 862.504Q808.321 862.927 807.855 863.327Q807.388 863.726 806.902 864.102Q806.416 864.478 805.912 864.829Q805.408 865.18 804.887 865.506Q804.366 865.831 803.829 866.13Q803.292 866.429 802.741 866.701Q802.19 866.973 801.626 867.217Q801.062 867.461 800.487 867.676Q799.912 867.891 799.326 868.078Q798.741 868.264 798.147 868.421Q797.553 868.578 796.952 868.704Q796.351 868.831 795.744 868.928C788.173 870.145 781.736 867.511 775.66 863.224C770.836 859.45 767.866 855.102 766.47 849.071C764.873 842.169 766.761 835.116 770.584 829.221C772.565 826.166 775.923 822.785 779.582 822.063C783.738 824.287 782.902 829.81 785.578 833.245C786.753 834.752 787.982 835.707 790.008 835.745C790.971 835.763 792.614 835.35 793.36 834.722C797.371 831.344 796.951 824.651 797.339 819.782Z"/>
	<path fill="#806388" d="M762.328 780.182Q764.182 780.27 766 780.645C773.457 782.223 780.175 791.319 783.848 797.389C790.146 807.797 794.916 821.055 791.921 833.213C791.193 832.928 790.538 832.667 789.877 832.249C785.229 829.309 784.605 820.423 783.058 815.493C778.961 802.432 764.891 793.072 762.328 780.182Z"/>
	<path fill="#F8835B" d="M556.192 583.636C580.664 587.5 606.928 594.491 622.186 615.834C634.762 633.427 634.904 656.826 631.273 677.309C625.862 707.832 611.172 738.422 588.08 759.531C583.512 749.757 580.055 739.288 575.848 729.327Q566.113 706.755 554.94 684.86Q544.646 664.472 533.808 644.368C530.007 637.337 524.914 629.857 522.236 622.348C532.886 608.641 543.766 595.781 556.192 583.636Z"/>
	<path fill="#4F195E" d="M589.981 647.549Q590.469 647.418 590.964 647.311Q591.458 647.204 591.957 647.122Q592.456 647.04 592.959 646.982Q593.461 646.924 593.966 646.892Q594.471 646.859 594.976 646.851Q595.482 646.843 595.987 646.86Q596.493 646.877 596.997 646.919Q597.501 646.961 598.002 647.028Q598.504 647.095 599.001 647.187Q599.498 647.278 599.991 647.394Q600.483 647.51 600.969 647.65Q601.455 647.79 601.934 647.953Q602.412 648.117 602.882 648.304Q603.352 648.492 603.812 648.702Q604.272 648.912 604.721 649.144Q605.17 649.377 605.607 649.631Q606.044 649.886 606.469 650.161Q606.893 650.437 607.303 650.733Q607.713 651.03 608.107 651.346Q608.502 651.662 608.881 651.997Q609.26 652.332 609.622 652.686Q609.984 653.039 610.328 653.41Q610.672 653.781 610.997 654.168Q611.322 654.556 611.628 654.958Q611.934 655.361 612.219 655.779Q612.505 656.196 612.77 656.628Q613.034 657.059 613.277 657.502Q613.52 657.946 613.741 658.401Q613.962 658.856 614.16 659.321Q614.359 659.787 614.534 660.261Q614.709 660.736 614.86 661.219Q615.011 661.701 615.139 662.191Q615.266 662.681 615.37 663.176Q615.473 663.671 615.551 664.171Q615.63 664.67 615.684 665.173Q615.738 665.676 615.767 666.181Q615.796 666.686 615.8 667.192Q615.804 667.698 615.784 668.203Q615.763 668.709 615.717 669.213Q615.672 669.716 615.601 670.217Q615.531 670.718 615.436 671.215Q615.341 671.712 615.221 672.203Q615.102 672.695 614.958 673.18Q614.815 673.665 614.648 674.143Q614.48 674.62 614.29 675.089Q614.099 675.557 613.886 676.016Q613.672 676.474 613.437 676.922Q613.201 677.369 612.943 677.805Q612.686 678.24 612.407 678.662Q612.129 679.084 611.829 679.492Q611.53 679.9 611.212 680.293Q610.893 680.685 610.555 681.062Q610.217 681.438 609.861 681.798Q609.505 682.157 609.132 682.498Q608.759 682.84 608.369 683.162Q607.98 683.485 607.575 683.788Q607.169 684.091 606.75 684.373Q606.331 684.656 605.898 684.917Q605.465 685.179 605.02 685.419Q604.574 685.659 604.118 685.876Q603.661 686.094 603.195 686.289Q602.728 686.484 602.252 686.656Q601.776 686.827 601.293 686.975Q600.809 687.123 600.319 687.247Q599.833 687.37 599.342 687.469Q598.851 687.568 598.355 687.642Q597.86 687.717 597.361 687.768Q596.863 687.818 596.362 687.844Q595.862 687.87 595.361 687.872Q594.86 687.874 594.359 687.851Q593.859 687.828 593.36 687.781Q592.861 687.733 592.365 687.662Q591.869 687.59 591.377 687.495Q590.885 687.399 590.399 687.279Q589.912 687.159 589.432 687.016Q588.952 686.873 588.479 686.706Q588.007 686.54 587.543 686.35Q587.079 686.161 586.625 685.949Q586.171 685.737 585.728 685.503Q585.284 685.269 584.853 685.014Q584.422 684.759 584.004 684.483Q583.585 684.207 583.181 683.911Q582.777 683.615 582.387 683.3Q581.998 682.984 581.625 682.65Q581.251 682.316 580.894 681.964Q580.537 681.612 580.198 681.243Q579.859 680.874 579.539 680.489Q579.218 680.104 578.916 679.704Q578.615 679.303 578.333 678.889Q578.052 678.474 577.79 678.046Q577.529 677.619 577.29 677.178Q577.05 676.738 576.832 676.287Q576.614 675.836 576.418 675.375Q576.222 674.913 576.049 674.443Q575.876 673.973 575.726 673.494Q575.576 673.016 575.45 672.531Q575.324 672.046 575.221 671.555Q575.119 671.065 575.04 670.57Q574.962 670.075 574.908 669.576Q574.854 669.078 574.824 668.578Q574.794 668.078 574.789 667.576Q574.784 667.075 574.803 666.574Q574.822 666.073 574.866 665.574Q574.909 665.075 574.977 664.578Q575.045 664.082 575.137 663.589Q575.229 663.096 575.346 662.609Q575.462 662.121 575.601 661.64Q575.741 661.159 575.904 660.685Q576.067 660.211 576.253 659.745Q576.439 659.28 576.648 658.824Q576.856 658.368 577.087 657.923Q577.317 657.479 577.569 657.045Q577.821 656.612 578.094 656.192Q578.367 655.771 578.66 655.365Q578.953 654.958 579.266 654.566Q579.578 654.175 579.91 653.799Q580.241 653.422 580.59 653.063Q580.939 652.704 581.306 652.362Q581.672 652.02 582.055 651.696Q582.437 651.373 582.835 651.068Q583.233 650.764 583.646 650.479Q584.058 650.194 584.484 649.93Q584.91 649.666 585.348 649.423Q585.786 649.18 586.236 648.958Q586.685 648.737 587.145 648.538Q587.605 648.339 588.074 648.162Q588.543 647.986 589.02 647.832Q589.497 647.679 589.981 647.549Z"/>
	<path fill="#FEFEFE" d="M584.489 659.058Q584.61 659.012 584.733 658.972Q584.856 658.933 584.981 658.899Q585.106 658.865 585.232 658.837Q585.359 658.809 585.486 658.787Q585.614 658.765 585.742 658.75Q585.871 658.734 586 658.724Q586.129 658.715 586.258 658.711Q586.388 658.708 586.517 658.711Q586.646 658.714 586.775 658.723Q586.905 658.732 587.033 658.747Q587.162 658.762 587.289 658.783Q587.417 658.805 587.543 658.832Q587.67 658.86 587.795 658.893Q587.92 658.926 588.043 658.966Q588.166 659.005 588.288 659.05Q588.409 659.095 588.528 659.146Q588.647 659.197 588.763 659.254Q588.88 659.311 588.993 659.373Q589.107 659.435 589.217 659.502Q589.328 659.57 589.435 659.642Q589.542 659.715 589.645 659.792Q589.749 659.87 589.848 659.953Q589.948 660.035 590.044 660.122Q590.139 660.21 590.231 660.301Q590.322 660.393 590.409 660.489Q590.496 660.585 590.578 660.685Q590.66 660.785 590.737 660.889Q590.815 660.993 590.887 661.1Q590.959 661.208 591.026 661.318Q591.093 661.429 591.155 661.543Q591.216 661.657 591.272 661.773Q591.329 661.89 591.379 662.009Q591.429 662.128 591.474 662.25Q591.519 662.371 591.558 662.495Q591.597 662.618 591.63 662.743Q591.662 662.868 591.689 662.995Q591.716 663.122 591.737 663.249Q591.758 663.377 591.773 663.506Q591.787 663.634 591.796 663.763Q591.804 663.893 591.807 664.022Q591.809 664.151 591.805 664.281Q591.801 664.41 591.791 664.539Q591.781 664.668 591.765 664.797Q591.749 664.925 591.727 665.052Q591.704 665.18 591.676 665.306Q591.647 665.432 591.613 665.557Q591.579 665.682 591.538 665.805Q591.498 665.928 591.452 666.049Q591.406 666.17 591.354 666.289Q591.302 666.407 591.245 666.523Q591.187 666.639 591.124 666.752Q591.061 666.865 590.993 666.975Q590.924 667.085 590.851 667.192Q590.778 667.298 590.699 667.401Q590.621 667.504 590.537 667.603Q590.454 667.702 590.366 667.797Q590.278 667.892 590.186 667.983Q590.093 668.073 589.997 668.159Q589.9 668.245 589.799 668.327Q589.699 668.408 589.594 668.485Q589.49 668.561 589.382 668.633Q589.274 668.704 589.163 668.77Q589.052 668.836 588.937 668.897Q588.823 668.958 588.706 669.013Q588.377 669.168 588.031 669.278Q587.684 669.387 587.326 669.45Q586.968 669.512 586.604 669.526Q586.241 669.54 585.879 669.505Q585.518 669.47 585.164 669.387Q584.81 669.304 584.47 669.174Q584.13 669.045 583.811 668.871Q583.492 668.697 583.199 668.482Q582.906 668.267 582.644 668.014Q582.382 667.762 582.157 667.477Q581.931 667.192 581.746 666.879Q581.561 666.566 581.419 666.231Q581.277 665.896 581.181 665.545Q581.085 665.195 581.037 664.834Q580.989 664.474 580.99 664.11Q580.991 663.746 581.04 663.386Q581.089 663.026 581.186 662.675Q581.283 662.325 581.427 661.99Q581.57 661.656 581.756 661.344Q581.943 661.032 582.169 660.747Q582.396 660.463 582.659 660.212Q582.921 659.96 583.215 659.746Q583.509 659.532 583.829 659.359Q584.149 659.186 584.489 659.058Z"/>
	<path fill="#F8835B" d="M643.901 527.311C657.391 533.559 670.828 539.882 683.78 547.199C709.441 561.695 747.327 589.587 777.317 590.483C755.123 598.432 734.667 605.837 710.757 606.434C705.906 604.777 701.21 603.469 696.046 603.948C687.805 598.855 676.902 598.232 668.073 594.105C643.429 582.584 622.326 565.957 601.434 548.814C613.6 538.628 629.823 534.174 643.901 527.311Z"/>
	<path fill="#4F195E" d="M696.099 563.138Q696.62 563.009 697.147 562.915Q697.675 562.82 698.208 562.761Q698.741 562.702 699.277 562.678Q699.812 562.654 700.349 562.666Q700.885 562.677 701.419 562.724Q701.953 562.771 702.483 562.853Q703.013 562.935 703.536 563.052Q704.059 563.169 704.574 563.321Q705.088 563.472 705.591 563.657Q706.095 563.842 706.585 564.06Q707.075 564.278 707.549 564.528Q708.024 564.777 708.481 565.058Q708.938 565.339 709.375 565.649Q709.813 565.959 710.229 566.297Q710.645 566.635 711.037 567.001Q711.43 567.366 711.798 567.756Q712.166 568.146 712.507 568.56Q712.848 568.974 713.161 569.409Q713.475 569.845 713.758 570.3Q714.042 570.755 714.295 571.228Q714.548 571.701 714.769 572.189Q714.991 572.678 715.179 573.18Q715.367 573.682 715.522 574.195Q715.677 574.709 715.798 575.231Q715.919 575.754 716.004 576.283Q716.09 576.813 716.141 577.347Q716.192 577.881 716.207 578.417Q716.222 578.953 716.202 579.489Q716.182 580.025 716.127 580.558Q716.071 581.092 715.981 581.62Q715.89 582.149 715.765 582.67Q715.64 583.192 715.48 583.704Q715.32 584.216 715.128 584.716Q714.935 585.217 714.709 585.703Q714.483 586.19 714.226 586.661Q713.969 587.131 713.681 587.584Q713.393 588.036 713.076 588.469Q712.759 588.901 712.414 589.312Q712.069 589.723 711.698 590.11Q711.327 590.497 710.931 590.858Q710.535 591.22 710.116 591.555Q709.697 591.889 709.256 592.195Q708.816 592.502 708.357 592.778Q707.897 593.055 707.42 593.3Q706.944 593.546 706.452 593.759Q705.96 593.972 705.455 594.153Q704.95 594.333 704.434 594.48Q703.918 594.627 703.394 594.739Q703.009 594.822 702.62 594.885Q702.231 594.949 701.84 594.994Q701.448 595.038 701.055 595.064Q700.662 595.09 700.268 595.096Q699.874 595.103 699.48 595.09Q699.086 595.078 698.694 595.046Q698.301 595.014 697.91 594.963Q697.52 594.913 697.132 594.843Q696.744 594.773 696.36 594.685Q695.976 594.596 695.597 594.489Q695.218 594.382 694.844 594.257Q694.471 594.132 694.104 593.989Q693.737 593.845 693.377 593.684Q693.017 593.523 692.666 593.345Q692.314 593.167 691.972 592.972Q691.63 592.777 691.297 592.565Q690.965 592.354 690.643 592.126Q690.321 591.899 690.011 591.656Q689.701 591.414 689.402 591.156Q689.104 590.898 688.819 590.627Q688.533 590.355 688.262 590.07Q687.99 589.784 687.732 589.486Q687.474 589.188 687.232 588.878Q686.989 588.568 686.761 588.246Q686.534 587.924 686.322 587.592Q686.11 587.259 685.915 586.917Q685.72 586.575 685.541 586.223Q685.363 585.872 685.202 585.512Q685.041 585.153 684.897 584.786Q684.754 584.419 684.628 584.045Q684.503 583.671 684.396 583.292Q684.289 582.913 684.2 582.529Q684.111 582.145 684.042 581.757Q683.972 581.369 683.921 580.979Q683.87 580.588 683.838 580.195Q683.806 579.802 683.793 579.408Q683.78 579.014 683.786 578.62Q683.793 578.226 683.818 577.833Q683.844 577.44 683.888 577.048Q683.933 576.657 683.996 576.268Q684.06 575.879 684.142 575.494Q684.224 575.108 684.325 574.727Q684.426 574.346 684.545 573.971Q684.664 573.595 684.802 573.226Q684.939 572.856 685.094 572.494Q685.25 572.132 685.422 571.778Q685.595 571.423 685.784 571.078Q685.974 570.732 686.18 570.396Q686.386 570.061 686.608 569.735Q686.83 569.41 687.068 569.095Q687.306 568.781 687.558 568.479Q687.811 568.176 688.078 567.887Q688.345 567.597 688.626 567.32Q688.907 567.044 689.201 566.782Q689.495 566.519 689.801 566.271Q690.107 566.023 690.425 565.791Q690.743 565.558 691.072 565.341Q691.401 565.124 691.74 564.923Q692.079 564.723 692.427 564.539Q692.776 564.355 693.133 564.188Q693.49 564.021 693.854 563.872Q694.219 563.722 694.59 563.591Q694.962 563.459 695.339 563.346Q695.717 563.233 696.099 563.138Z"/>
	<path fill="#FEFEFE" d="M690.354 573.766Q690.472 573.727 690.591 573.693Q690.711 573.659 690.832 573.631Q690.952 573.603 691.074 573.58Q691.197 573.558 691.32 573.541Q691.443 573.525 691.566 573.514Q691.69 573.503 691.814 573.497Q691.938 573.492 692.062 573.493Q692.186 573.493 692.31 573.5Q692.434 573.506 692.558 573.518Q692.681 573.531 692.804 573.549Q692.927 573.567 693.049 573.59Q693.171 573.614 693.291 573.643Q693.412 573.673 693.531 573.708Q693.65 573.743 693.767 573.783Q693.885 573.824 694 573.87Q694.115 573.916 694.228 573.967Q694.341 574.018 694.452 574.074Q694.562 574.131 694.67 574.193Q694.778 574.254 694.883 574.321Q694.988 574.387 695.089 574.459Q695.191 574.53 695.289 574.606Q695.387 574.682 695.482 574.763Q695.576 574.843 695.667 574.928Q695.757 575.013 695.844 575.102Q695.93 575.191 696.012 575.284Q696.095 575.377 696.173 575.474Q696.25 575.57 696.324 575.671Q696.397 575.771 696.466 575.875Q696.534 575.978 696.598 576.085Q696.661 576.191 696.72 576.301Q696.778 576.41 696.832 576.522Q696.885 576.634 696.933 576.749Q696.981 576.864 697.024 576.98Q697.066 577.097 697.104 577.215Q697.141 577.334 697.172 577.454Q697.204 577.574 697.23 577.695Q697.256 577.817 697.276 577.939Q697.296 578.062 697.311 578.185Q697.325 578.308 697.334 578.432Q697.343 578.556 697.346 578.68Q697.349 578.804 697.346 578.928Q697.343 579.053 697.334 579.177Q697.326 579.3 697.311 579.424Q697.297 579.547 697.277 579.67Q697.256 579.792 697.231 579.913Q697.205 580.035 697.173 580.155Q697.142 580.275 697.105 580.394Q697.068 580.512 697.025 580.629Q696.982 580.745 696.934 580.86Q696.886 580.974 696.833 581.087Q696.78 581.199 696.721 581.308Q696.663 581.418 696.599 581.524Q696.536 581.631 696.467 581.735Q696.399 581.838 696.326 581.939Q696.253 582.039 696.175 582.136Q696.097 582.232 696.015 582.325Q695.933 582.418 695.846 582.508Q695.76 582.597 695.669 582.682Q695.578 582.766 695.484 582.847Q695.39 582.928 695.292 583.004Q695.194 583.08 695.092 583.151Q694.99 583.223 694.886 583.289Q694.781 583.356 694.673 583.418Q694.566 583.479 694.455 583.536Q694.293 583.619 694.125 583.691Q693.958 583.763 693.786 583.823Q693.614 583.883 693.438 583.931Q693.262 583.979 693.083 584.015Q692.905 584.051 692.724 584.075Q692.543 584.098 692.361 584.109Q692.179 584.12 691.997 584.119Q691.815 584.118 691.633 584.104Q691.451 584.09 691.271 584.064Q691.09 584.038 690.912 583.999Q690.734 583.961 690.559 583.91Q690.384 583.859 690.213 583.797Q690.042 583.734 689.875 583.66Q689.709 583.586 689.548 583.501Q689.387 583.415 689.232 583.319Q689.077 583.223 688.929 583.116Q688.781 583.009 688.641 582.893Q688.501 582.776 688.369 582.651Q688.237 582.525 688.114 582.39Q687.991 582.256 687.878 582.113Q687.764 581.97 687.661 581.82Q687.557 581.67 687.465 581.513Q687.372 581.356 687.29 581.193Q687.208 581.031 687.137 580.862Q687.067 580.694 687.008 580.522Q686.949 580.349 686.902 580.173Q686.855 579.997 686.821 579.818Q686.786 579.639 686.763 579.458Q686.741 579.277 686.731 579.095Q686.721 578.913 686.724 578.731Q686.726 578.549 686.742 578.367Q686.757 578.185 686.784 578.005Q686.811 577.825 686.851 577.647Q686.891 577.469 686.943 577.294Q686.995 577.12 687.058 576.949Q687.122 576.778 687.197 576.612Q687.273 576.446 687.359 576.286Q687.446 576.125 687.543 575.971Q687.64 575.817 687.748 575.67Q687.855 575.522 687.973 575.383Q688.09 575.244 688.217 575.113Q688.343 574.982 688.479 574.859Q688.614 574.737 688.758 574.625Q688.901 574.513 689.052 574.41Q689.203 574.308 689.36 574.216Q689.517 574.124 689.681 574.043Q689.844 573.963 690.013 573.893Q690.181 573.824 690.354 573.766Z"/>
	<path fill="#4F195E" d="M696.046 603.948C701.21 603.469 705.906 604.777 710.757 606.434C714.75 610.127 717.72 613.971 719.618 619.127C723.88 630.701 721.803 646.365 716.614 657.437C714.273 662.433 710.706 665.809 705.448 667.577C694.723 671.184 679.179 667.475 669.376 662.38C662.913 659.02 656.861 653.804 654.663 646.631C652.926 640.962 654.045 635.041 656.796 629.889C664.812 614.878 680.652 608.459 696.046 603.948Z"/>
	<path fill="#F8835B" d="M743.51 617.87C752.445 623.99 759.472 631.237 761.651 642.305C762.568 646.963 762.394 651.74 759.567 655.751C758.03 657.933 755.2 660.767 752.641 661.61C752.294 674.193 750.404 685.303 740.795 694.375C733.744 701.031 724.481 704.487 715.453 707.528C715.211 728.721 715.103 768.245 698.747 783.883C695.76 786.738 691.912 788.82 687.658 788.521C682.206 788.138 677.674 784.147 674.39 780.097C664.078 767.38 660.208 747.604 661.963 731.521C662.493 726.669 663.86 722.101 665.32 717.468L662.157 716.603C657.329 715.323 652.133 712.872 648.79 709.063C645.423 705.226 644.174 700.083 644.607 695.071C644.825 692.557 645.375 689.944 647.375 688.263C649.043 690.711 647.851 695.912 648.325 698.982C649.299 705.295 654.802 709.048 659.656 712.423C666.902 713.637 672.559 714.328 679.725 711.877C694.049 706.979 699.125 691.912 705.258 679.598C714.221 661.6 733.685 664.421 750.252 658.841C754.117 656.318 757.691 653.624 758.64 648.798C759.827 642.759 756.036 636.684 752.657 632.022C749.306 627.397 745.872 623.124 743.51 617.87Z"/>
	<path fill="#4F195E" d="M743.51 617.87C752.445 623.99 759.472 631.237 761.651 642.305C762.568 646.963 762.394 651.74 759.567 655.751C758.03 657.933 755.2 660.767 752.641 661.61C752.294 674.193 750.404 685.303 740.795 694.375C733.744 701.031 724.481 704.487 715.453 707.528C715.538 701.917 715.151 697.76 711.653 693.218C709.978 692.332 709.132 691.733 707.155 692.417C704.883 693.203 702.954 695.501 701.387 697.21C688.671 711.07 686.074 717.73 665.32 717.468L662.157 716.603C657.329 715.323 652.133 712.872 648.79 709.063C645.423 705.226 644.174 700.083 644.607 695.071C644.825 692.557 645.375 689.944 647.375 688.263C649.043 690.711 647.851 695.912 648.325 698.982C649.299 705.295 654.802 709.048 659.656 712.423C666.902 713.637 672.559 714.328 679.725 711.877C694.049 706.979 699.125 691.912 705.258 679.598C714.221 661.6 733.685 664.421 750.252 658.841C754.117 656.318 757.691 653.624 758.64 648.798C759.827 642.759 756.036 636.684 752.657 632.022C749.306 627.397 745.872 623.124 743.51 617.87Z"/>
	<path fill="#4F195E" d="M765.218 710.699C767.118 711.635 767.068 711.688 767.893 713.491C765.208 722.009 748.491 730.835 740.802 734.876C740.151 734.786 739.502 734.11 738.979 733.718C739.202 733.134 739.3 732.484 739.65 731.966C741.963 728.537 752.484 722.629 756.33 719.458C759.55 716.804 762.39 713.757 765.218 710.699Z"/>
	<path fill="#806388" d="M1283.95 129.077C1295.48 126.735 1305.77 119.97 1316.62 115.654C1344.86 104.421 1382.56 105.026 1411.57 112.748C1418.43 114.572 1440.8 121.917 1444.13 127.654C1446.79 128.701 1449.26 129.478 1451.06 131.838C1458.44 134.096 1480.05 149.61 1483.89 156.535C1483.97 156.692 1484.01 156.874 1484.07 157.044C1490.93 159.016 1503.93 179.993 1507.46 186.414C1516.54 202.881 1534.22 247.785 1529.07 265.769C1528.6 267.405 1527.67 268.411 1526.4 269.478C1529.33 273.047 1528.5 278.294 1528.08 282.612C1526.29 300.689 1519.2 322.509 1508.92 337.521C1507.17 343.58 1502.7 348.956 1498.89 353.874C1485.25 371.526 1469.48 386.064 1449.86 396.884C1425.62 410.255 1396.12 417.204 1368.52 417.879C1368.25 418.853 1367.66 418.992 1366.87 419.571C1357.45 420.95 1346.16 418.771 1336.91 416.874Q1334.9 416.483 1332.9 416.041Q1330.91 415.599 1328.92 415.105Q1326.93 414.612 1324.96 414.068Q1322.99 413.524 1321.03 412.93Q1319.07 412.336 1317.13 411.692Q1315.19 411.048 1313.26 410.354Q1311.34 409.661 1309.43 408.918Q1307.53 408.176 1305.64 407.384Q1303.75 406.593 1301.89 405.754Q1300.02 404.915 1298.18 404.028Q1296.33 403.141 1294.51 402.208Q1292.69 401.274 1290.89 400.294Q1289.1 399.315 1287.33 398.289Q1285.56 397.263 1283.81 396.193Q1282.07 395.122 1280.35 394.008Q1278.64 392.893 1276.95 391.735Q1275.26 390.576 1273.61 389.375Q1271.95 388.174 1270.32 386.931Q1268.7 385.688 1267.11 384.403Q1265.51 383.119 1263.95 381.794Q1262.39 380.47 1260.87 379.105Q1259.34 377.741 1257.85 376.339Q1256.36 374.936 1254.91 373.495Q1253.46 372.055 1252.04 370.578Q1250.62 369.101 1249.25 367.588Q1247.87 366.075 1246.53 364.527Q1245.19 362.98 1243.89 361.398Q1242.59 359.817 1241.33 358.203Q1240.08 356.588 1238.86 354.943Q1237.64 353.297 1236.47 351.62Q1235.3 349.944 1234.17 348.238Q1233.04 346.532 1231.95 344.798C1224.5 332.667 1218.98 319.819 1215.84 305.926C1214.34 299.328 1213.39 291.919 1211.06 285.594C1210.2 283.245 1209.69 282.962 1207.61 281.553C1207.7 281.458 1207.79 281.362 1207.89 281.268C1209.32 279.855 1209.79 278.519 1210.07 276.569C1210.9 270.733 1210.32 264.293 1210.4 258.383C1210.56 246.25 1212.03 234.65 1215.25 222.933C1225.22 186.716 1250.77 147.913 1283.95 129.077Z"/>
	<path fill="#806388" d="M1508.53 202.802C1512.62 191.837 1486.66 169.853 1483.34 160.079C1482.87 158.691 1483.42 158.289 1484.07 157.044C1490.93 159.016 1503.93 179.993 1507.46 186.414C1516.54 202.881 1534.22 247.785 1529.07 265.769C1528.6 267.405 1527.67 268.411 1526.4 269.478C1529.33 273.047 1528.5 278.294 1528.08 282.612C1526.29 300.689 1519.2 322.509 1508.92 337.521C1507.17 343.58 1502.7 348.956 1498.89 353.874C1485.25 371.526 1469.48 386.064 1449.86 396.884C1425.62 410.255 1396.12 417.204 1368.52 417.879L1367.9 416.567C1362.47 414.196 1354.09 414.572 1348.1 414.16C1353.3 409.576 1352.08 396.172 1352.6 389.389C1353.56 376.994 1357.02 364.193 1360.58 352.3C1378.26 293.215 1418.62 247.765 1474.36 221.96C1480.83 218.963 1507.76 213.081 1510.58 210.312C1510.81 210.089 1511.01 209.844 1511.23 209.61L1511.84 207.875C1511.32 205.115 1510.5 204.668 1508.53 202.802Z"/>
	<path fill="#4F195E" d="M1508.53 202.802C1512.62 191.837 1486.66 169.853 1483.34 160.079C1482.87 158.691 1483.42 158.289 1484.07 157.044C1490.93 159.016 1503.93 179.993 1507.46 186.414C1516.54 202.881 1534.22 247.785 1529.07 265.769C1528.6 267.405 1527.67 268.411 1526.4 269.478C1522.82 258.657 1522.95 245.361 1521.32 234.036C1520.14 225.786 1518.27 214.888 1511.23 209.61L1511.84 207.875C1511.32 205.115 1510.5 204.668 1508.53 202.802Z"/>
	<path fill="#806388" d="M1283.95 129.077C1295.48 126.735 1305.77 119.97 1316.62 115.654C1344.86 104.421 1382.56 105.026 1411.57 112.748C1418.43 114.572 1440.8 121.917 1444.13 127.654C1437.94 144.147 1369.23 182.313 1352.93 189.721Q1347.31 192.272 1341.61 194.614Q1335.9 196.956 1330.11 199.084Q1324.32 201.213 1318.45 203.126Q1312.59 205.039 1306.66 206.734Q1300.72 208.428 1294.73 209.902Q1288.74 211.376 1282.7 212.627Q1276.66 213.879 1270.58 214.905Q1264.5 215.932 1258.38 216.733C1245.51 218.302 1231.87 218.039 1219.19 220.491C1225.58 213.846 1228.17 200.533 1232.3 192.1C1236.2 184.141 1241.03 176.539 1246.29 169.411C1250.39 163.851 1254.74 158.248 1259.79 153.511C1266.16 147.529 1281.69 137.894 1285.36 130.972L1283.95 129.077Z"/>
	<path fill="#FEFEFE" d="M1508.53 202.802C1510.5 204.668 1511.32 205.115 1511.84 207.875L1511.23 209.61C1511.01 209.844 1510.81 210.089 1510.58 210.312C1507.76 213.081 1480.83 218.963 1474.36 221.96C1418.62 247.765 1378.26 293.215 1360.58 352.3C1357.02 364.193 1353.56 376.994 1352.6 389.389C1352.08 396.172 1353.3 409.576 1348.1 414.16C1346.01 414.12 1343.83 413.625 1341.76 413.32C1345.46 403.295 1345.01 390.685 1346.48 380.082C1350.61 350.26 1361.96 321.142 1377.95 295.705Q1379.31 293.521 1380.72 291.371Q1382.13 289.221 1383.59 287.106Q1385.05 284.992 1386.57 282.914Q1388.08 280.837 1389.65 278.798Q1391.22 276.758 1392.83 274.759Q1394.45 272.759 1396.11 270.8Q1397.78 268.841 1399.49 266.924Q1401.2 265.006 1402.97 263.132Q1404.73 261.258 1406.53 259.428Q1408.34 257.598 1410.19 255.814Q1412.04 254.029 1413.93 252.291Q1415.83 250.553 1417.77 248.862Q1419.7 247.172 1421.68 245.53Q1423.66 243.888 1425.68 242.295Q1427.7 240.703 1429.75 239.161Q1431.81 237.619 1433.91 236.128Q1436 234.638 1438.13 233.2Q1440.26 231.762 1442.43 230.377Q1444.6 228.992 1446.8 227.661Q1449 226.331 1451.23 225.055Q1453.46 223.779 1455.72 222.56Q1457.99 221.34 1460.28 220.176Q1462.57 219.013 1464.89 217.906Q1467.21 216.8 1469.56 215.752Q1471.91 214.703 1474.28 213.714Q1476.65 212.724 1479.05 211.793Q1481.45 210.862 1483.87 209.991Q1486.28 209.12 1488.72 208.31Q1491.16 207.499 1493.62 206.749Q1496.08 205.999 1498.56 205.31Q1501.04 204.621 1503.53 203.994Q1506.02 203.367 1508.53 202.802Z"/>
	<path fill="#FEFEFE" d="M1219.19 220.491C1231.87 218.039 1245.51 218.302 1258.38 216.733Q1264.5 215.932 1270.58 214.905Q1276.66 213.879 1282.7 212.627Q1288.74 211.376 1294.73 209.902Q1300.72 208.428 1306.66 206.734Q1312.59 205.039 1318.45 203.126Q1324.32 201.213 1330.11 199.084Q1335.9 196.956 1341.61 194.614Q1347.31 192.272 1352.93 189.721C1369.23 182.313 1437.94 144.147 1444.13 127.654C1446.79 128.701 1449.26 129.478 1451.06 131.838C1447.37 141.991 1401.52 171.851 1390.81 178.235Q1375.21 187.522 1358.77 195.223Q1352.09 198.295 1345.3 201.097Q1338.5 203.899 1331.6 206.427Q1324.7 208.955 1317.7 211.205Q1310.71 213.455 1303.63 215.423Q1296.55 217.391 1289.39 219.075Q1282.24 220.758 1275.02 222.154Q1267.81 223.55 1260.54 224.656Q1253.27 225.762 1245.97 226.577C1238.44 227.446 1228.41 229.121 1221.13 226.857C1219.87 226.463 1218.83 225.669 1217.85 224.807C1218.92 222.996 1219.26 222.658 1219.19 220.491Z"/>
	<path fill="#4F195E" d="M1207.61 281.553C1207.7 281.458 1207.79 281.362 1207.89 281.268C1209.32 279.855 1209.79 278.519 1210.07 276.569C1210.9 270.733 1210.32 264.293 1210.4 258.383C1210.56 246.25 1212.03 234.65 1215.25 222.933C1225.22 186.716 1250.77 147.913 1283.95 129.077L1285.36 130.972C1281.69 137.894 1266.16 147.529 1259.79 153.511C1254.74 158.248 1250.39 163.851 1246.29 169.411C1241.03 176.539 1236.2 184.141 1232.3 192.1C1228.17 200.533 1225.58 213.846 1219.19 220.491C1219.26 222.658 1218.92 222.996 1217.85 224.807C1217.88 224.987 1217.91 225.167 1217.94 225.347C1219.44 237.152 1214.53 251.189 1214.12 263.298C1212.6 307.754 1234.6 353.38 1269.2 380.972C1284.65 393.29 1322.2 413.175 1341.76 413.32C1343.83 413.625 1346.01 414.12 1348.1 414.16C1354.09 414.572 1362.47 414.196 1367.9 416.567L1368.52 417.879C1368.25 418.853 1367.66 418.992 1366.87 419.571C1357.45 420.95 1346.16 418.771 1336.91 416.874Q1334.9 416.483 1332.9 416.041Q1330.91 415.599 1328.92 415.105Q1326.93 414.612 1324.96 414.068Q1322.99 413.524 1321.03 412.93Q1319.07 412.336 1317.13 411.692Q1315.19 411.048 1313.26 410.354Q1311.34 409.661 1309.43 408.918Q1307.53 408.176 1305.64 407.384Q1303.75 406.593 1301.89 405.754Q1300.02 404.915 1298.18 404.028Q1296.33 403.141 1294.51 402.208Q1292.69 401.274 1290.89 400.294Q1289.1 399.315 1287.33 398.289Q1285.56 397.263 1283.81 396.193Q1282.07 395.122 1280.35 394.008Q1278.64 392.893 1276.95 391.735Q1275.26 390.576 1273.61 389.375Q1271.95 388.174 1270.32 386.931Q1268.7 385.688 1267.11 384.403Q1265.51 383.119 1263.95 381.794Q1262.39 380.47 1260.87 379.105Q1259.34 377.741 1257.85 376.339Q1256.36 374.936 1254.91 373.495Q1253.46 372.055 1252.04 370.578Q1250.62 369.101 1249.25 367.588Q1247.87 366.075 1246.53 364.527Q1245.19 362.98 1243.89 361.398Q1242.59 359.817 1241.33 358.203Q1240.08 356.588 1238.86 354.943Q1237.64 353.297 1236.47 351.62Q1235.3 349.944 1234.17 348.238Q1233.04 346.532 1231.95 344.798C1224.5 332.667 1218.98 319.819 1215.84 305.926C1214.34 299.328 1213.39 291.919 1211.06 285.594C1210.2 283.245 1209.69 282.962 1207.61 281.553Z"/>
	<path fill="#F8835B" d="M878.497 701.063C879.011 700.505 879.46 699.628 880.25 699.613C884.325 699.534 889.43 702.256 893.231 703.732C919.35 713.878 941.792 727.54 964.244 744.118C1001.99 743.454 1038.53 751.231 1066.3 778.807C1068.3 780.787 1069.39 782.041 1069.82 784.809C1072.75 792.057 1069.75 804.434 1066.86 811.527C1066.03 813.566 1065.03 814.765 1063.17 815.945C1067.05 822.467 1057.8 856.242 1055.62 864.921C1054.72 868.506 1053.76 874.58 1051.02 877.196C1047.51 877.766 1044.15 878.209 1040.6 878.261C1045.3 884.85 1044.27 915.156 1042.92 923.568C1042.64 925.279 1042 926.886 1040.94 928.254Q847.074 929.549 653.208 927.951C645.531 921.986 636.4 917.353 628.264 911.974C615.2 903.337 603.179 893.173 591.794 882.447C650.005 886.823 710.616 874.887 761.599 846.083C763.5 853.276 765.924 859.628 771.317 864.968Q771.811 865.465 772.33 865.937Q772.848 866.409 773.389 866.854Q773.931 867.3 774.494 867.717Q775.057 868.135 775.64 868.524Q776.223 868.913 776.825 869.272Q777.427 869.631 778.046 869.96Q778.665 870.289 779.3 870.586Q779.935 870.883 780.584 871.148Q781.232 871.414 781.894 871.646Q782.555 871.878 783.227 872.077Q783.899 872.276 784.581 872.441Q785.262 872.606 785.951 872.737Q786.639 872.867 787.334 872.963Q788.028 873.059 788.726 873.121Q789.424 873.182 790.125 873.208Q790.825 873.234 791.526 873.225Q792.258 873.22 792.989 873.178Q793.72 873.137 794.449 873.06Q795.177 872.983 795.9 872.87Q796.624 872.757 797.341 872.608Q798.058 872.46 798.767 872.277Q799.476 872.093 800.175 871.875Q800.874 871.657 801.562 871.405Q802.249 871.153 802.923 870.868Q803.598 870.582 804.257 870.264Q804.917 869.945 805.56 869.595Q806.203 869.244 806.828 868.863Q807.453 868.481 808.058 868.07Q808.664 867.658 809.249 867.217Q809.833 866.776 810.395 866.306Q810.958 865.837 811.496 865.341Q812.035 864.844 812.548 864.322C819.602 857.053 821.135 848.452 821.01 838.68C817.474 827.456 811.653 822.43 801.703 816.891C809.19 809.558 818.567 803.902 826.45 796.9C855.708 770.91 873.399 739.902 878.497 701.063Z"/>
	<path fill="#FEFEFE" d="M878.497 701.063C879.011 700.505 879.46 699.628 880.25 699.613C884.325 699.534 889.43 702.256 893.231 703.732C919.35 713.878 941.792 727.54 964.244 744.118C1001.99 743.454 1038.53 751.231 1066.3 778.807C1068.3 780.787 1069.39 782.041 1069.82 784.809C1072.75 792.057 1069.75 804.434 1066.86 811.527C1066.03 813.566 1065.03 814.765 1063.17 815.945C1030.02 821.367 995.481 842.393 967.584 860.777C926.547 835.072 887.275 822.707 838.694 833.844Q829.737 835.841 821.01 838.68C817.474 827.456 811.653 822.43 801.703 816.891C809.19 809.558 818.567 803.902 826.45 796.9C855.708 770.91 873.399 739.902 878.497 701.063Z"/>
	<path fill="#4F195E" d="M1345.97 861.35C1346.11 861.231 1346.26 861.118 1346.39 860.993C1350.73 856.94 1350.54 849.196 1354.21 844.478L1355.88 845.261C1356.63 850.057 1353.34 857.365 1350.5 861.114C1350.24 861.47 1349.83 861.867 1349.53 862.176C1351.9 864.831 1356.14 872.998 1356.01 876.649C1355.98 877.55 1355.93 877.544 1355.67 878.265C1374.39 878.303 1393.18 878.677 1411.89 878.024C1419.18 878.111 1448.99 879.545 1453.61 876.497C1454.05 872.599 1452.82 869.335 1451.97 865.59C1451.21 862.218 1449.82 856.824 1451.77 853.703C1452.37 854.195 1452.82 854.536 1453.21 855.223C1456.23 860.499 1459.94 872.296 1457.94 878.051C1470.09 878.043 1507.14 881.414 1515.99 877.238C1518.4 877.862 1520.74 877.906 1522.29 879.903C1521.61 881.025 1521.15 881.798 1520.09 882.604C1526.12 887.673 1527.82 909.046 1528.49 916.841C1528.85 921.135 1529.63 925.203 1527.18 929.004C1528.77 930.038 1530.4 930.957 1532.3 931.298C1542.5 933.135 1579.98 933.826 1589.99 932.095C1604.75 933.243 1620.03 932.662 1634.87 932.802Q1677.16 933.027 1719.45 933.779C1734 934.04 1753.88 931.793 1767.37 937.043C1753.25 942.431 1680.54 942.633 1662.27 943.081Q1494.77 946.541 1327.24 946.839Q949.228 949.213 571.206 947.603Q440.712 947.801 310.243 945.181Q215.529 945.083 120.859 942.186C112.878 941.866 68.5192 941.663 64.1209 936.898C64.2913 936.727 64.4536 936.548 64.6319 936.386C69.9502 931.542 168.075 931.467 182.942 931.498C204.44 933.572 226.697 934.536 248.117 930.954C246.137 930.798 244.159 930.5 242.188 930.25C246.29 927.713 251.902 926.597 256.476 924.998Q259.859 923.822 263.139 922.385Q266.419 920.949 269.578 919.26Q272.736 917.572 275.753 915.641Q278.769 913.711 281.626 911.551L285.236 908.732C291.552 903.548 296.939 898.018 302.099 891.696C318.117 911.407 336.513 920.878 360.29 928.838C378.571 931.705 397.018 935.263 415.586 933.265C425.327 932.216 434.956 929.75 444.668 928.812L653.208 927.951Q847.074 929.55 1040.94 928.254C1042 926.886 1042.64 925.279 1042.92 923.568C1044.27 915.156 1045.3 884.85 1040.6 878.261C1044.15 878.209 1047.51 877.766 1051.02 877.196C1064.42 879.229 1077.62 878.55 1091.12 878.19L1093.02 880.039C1104.07 887.239 1115.25 895.054 1129.18 892.258C1134.77 891.136 1143.89 887.909 1147.19 882.967C1147.6 882.349 1147.93 881.701 1148.24 881.03C1149.44 880.142 1149.94 879.389 1150.71 878.147C1175.93 877.318 1201.03 877.977 1226.25 878.059L1350.67 878.277C1350.72 878.136 1350.78 877.998 1350.83 877.855C1352.41 873.129 1347.95 865.661 1345.97 861.35Z"/>
	<path fill="#806388" d="M1093.02 880.039C1104.07 887.239 1115.25 895.054 1129.18 892.258C1134.77 891.136 1143.89 887.909 1147.19 882.967C1147.6 882.349 1147.93 881.701 1148.24 881.03C1151.02 883.099 1155.37 882.953 1158.73 883.131C1174.56 883.972 1190.69 882.721 1206.57 882.698L1309.85 882.624C1327.04 882.498 1344.13 881.517 1361.31 882.778C1376.08 882.137 1390.98 880.949 1405.71 882.74Q1429.88 882.531 1454.05 882.697C1454.67 883.524 1455.16 884.29 1455.51 885.278C1458.11 892.812 1457.3 921.874 1453.99 928.511C1442.67 930.163 1429.26 928.726 1417.67 928.714L1335.15 928.66L1045.75 928.693C1045.83 928.569 1045.91 928.443 1045.99 928.32C1046.6 927.379 1047.18 926.436 1047.4 925.317C1049.01 917.27 1049.89 889.065 1045.57 882.67C1057.16 882.823 1083.45 884.934 1093.15 882.037L1093.02 880.039Z"/>
	<path fill="#FEFEFE" d="M1361.31 882.778C1376.08 882.137 1390.98 880.949 1405.71 882.74L1405.9 884.553C1403.17 887.955 1399.66 888.893 1395.53 889.606C1383.78 891.634 1371.09 889.771 1361.31 882.778Z"/>
	<path fill="#806388" d="M1458.23 882.6L1520.09 882.604C1526.12 887.673 1527.82 909.046 1528.49 916.841C1528.85 921.135 1529.63 925.203 1527.18 929.004C1519.78 928.037 1511.46 928.685 1503.97 928.681L1458.13 928.692C1459.1 927.452 1459.61 926.394 1459.88 924.852C1461.39 916.479 1462.96 889.164 1458.23 882.6Z"/>
	<path fill="#ECF1AC" d="M285.236 908.732C291.552 903.548 296.939 898.018 302.099 891.696C318.117 911.407 336.513 920.878 360.29 928.838Q323.466 929.983 286.629 930.515C274.679 930.629 259.721 929.264 248.117 930.954C246.137 930.798 244.159 930.5 242.188 930.25C246.29 927.713 251.902 926.597 256.476 924.998Q259.859 923.822 263.139 922.385Q266.419 920.949 269.578 919.26Q272.736 917.572 275.753 915.641Q278.769 913.711 281.626 911.551L285.236 908.732Z"/>
	<path fill="#4F195E" d="M171.809 691.371C200.95 679.531 238.051 682.105 266.627 694.199C275.729 698.051 284.729 702.981 292.671 708.879L295.881 711.514C321.058 733.793 338.465 761.964 340.47 796.206C340.836 802.463 338.147 820.068 340.088 824.524C331.519 827.078 316.655 831.012 312.328 839.552Q311.648 840.915 311.253 842.386C303.995 846.822 299.876 854.423 297.898 862.534C296.5 868.269 296.434 873.462 297.403 879.256L297.954 881.657C299.264 884.945 300.41 888.602 302.099 891.696C296.939 898.018 291.552 903.548 285.236 908.732L281.626 911.551Q278.769 913.711 275.753 915.641Q272.736 917.572 269.578 919.26Q266.42 920.949 263.139 922.385Q259.859 923.822 256.476 924.998C251.902 926.597 246.29 927.713 242.188 930.25C244.159 930.5 246.137 930.798 248.117 930.954C226.697 934.536 204.44 933.572 182.942 931.498C167.7 924.813 153 921.341 138.949 911.655L137.022 910.142C123.733 898.829 111.674 886.116 103.028 870.851C83.9586 837.184 85.1248 802.597 95.1573 766.315C108.186 735.978 127.173 712.152 157.277 697.569L161.449 695.298L170.597 691.9L171.809 691.371Z"/>
	<path fill="#806388" d="M170.597 691.9C173.639 731.208 186 768.675 201.877 804.484C186.244 825.633 142.045 886.455 137.022 910.142C123.733 898.829 111.674 886.116 103.028 870.851C83.9586 837.184 85.1248 802.597 95.1573 766.315C108.186 735.978 127.173 712.152 157.277 697.569L161.449 695.298L170.597 691.9Z"/>
	<path fill="#4F195E" d="M157.277 697.569L161.449 695.298C161.64 716.735 161.875 737.873 163.949 759.244L160.472 758.137C155.739 740.779 157.426 715.642 157.277 697.569Z"/>
	<path fill="#FEFEFE" d="M163.949 759.244C164.552 760.039 164.887 760.567 165.098 761.562C166.652 768.919 171.241 787.093 167.186 793.308L165.76 793.149C160.107 785.139 160.974 767.93 160.472 758.137L163.949 759.244Z"/>
	<path fill="#806388" d="M295.881 711.514C321.058 733.793 338.465 761.964 340.47 796.206C340.836 802.463 338.147 820.068 340.088 824.524C331.519 827.078 316.655 831.012 312.328 839.552Q311.648 840.915 311.253 842.386C303.995 846.822 299.876 854.423 297.898 862.534C296.5 868.269 296.434 873.462 297.403 879.256C291.062 879.622 274.361 889.036 267.058 891.611C243.26 866.431 221.683 836.075 206.753 804.802Q211.417 798.186 216.323 791.748Q221.23 785.309 226.372 779.058Q231.514 772.806 236.884 766.75Q242.255 760.693 247.847 754.841Q253.438 748.988 259.243 743.347Q265.048 737.706 271.059 732.285Q277.069 726.863 283.277 721.669Q289.485 716.474 295.881 711.514Z"/>
	<path fill="#806388" d="M171.809 691.371C200.95 679.531 238.051 682.105 266.627 694.199C275.729 698.051 284.729 702.981 292.671 708.879C258.692 735.497 231.572 766.814 204.617 800.333C193.244 777.101 184.463 751.447 179.604 726.041C177.863 716.937 177.557 707.585 175.643 698.545C174.976 695.396 174.521 693.144 171.809 691.371Z"/>
	<path fill="#806388" d="M150.886 891.479C179.49 902.148 207.901 907.697 238.356 902.289C247.945 900.586 257.495 897 267.157 896.025C271.571 901.667 276.229 906.824 281.626 911.551Q278.769 913.711 275.753 915.641Q272.736 917.572 269.578 919.26Q266.42 920.949 263.139 922.385Q259.859 923.822 256.476 924.998C251.902 926.597 246.29 927.713 242.188 930.25C244.159 930.5 246.137 930.798 248.117 930.954C226.697 934.536 204.44 933.572 182.942 931.498C167.7 924.813 153 921.341 138.949 911.655C143.266 905.094 147.111 898.363 150.886 891.479Z"/>
	<path fill="#806388" d="M297.954 881.657C299.264 884.945 300.41 888.602 302.099 891.696C296.939 898.018 291.552 903.548 285.236 908.732C280.612 903.8 275.276 899.289 270.338 894.655C279.983 890.965 289.153 887.104 297.954 881.657Z"/>
	<path fill="#806388" d="M203.125 809.335C207.033 811.68 217.1 832.21 220.365 837.81C232.225 858.15 246.625 875.433 262.533 892.647C245.672 897.694 229.658 898.465 212.181 899.287C191 899.399 172 895.197 152.323 887.645C167.982 860.624 185.259 834.923 203.125 809.335Z"/>
	<path fill="#F8835B" d="M883.94 453.046C888.291 439.932 896.507 427.959 908.09 420.24Q909.168 419.517 910.28 418.849Q911.392 418.181 912.537 417.569Q913.681 416.957 914.854 416.403Q916.028 415.848 917.227 415.354Q918.427 414.859 919.649 414.424Q920.872 413.99 922.115 413.617Q923.358 413.244 924.617 412.933Q925.877 412.622 927.151 412.375Q928.425 412.128 929.709 411.944Q930.994 411.761 932.286 411.641Q933.578 411.522 934.874 411.467Q936.171 411.413 937.469 411.423Q938.766 411.433 940.061 411.507Q941.357 411.582 942.647 411.721Q943.937 411.86 945.219 412.064Q946.5 412.267 947.77 412.534C963.991 415.883 977.21 426.324 986.124 440.009C988.39 443.508 990.61 446.921 992.338 450.729C1019.49 491.497 996.632 542.335 1016.19 584.435C1023.61 600.421 1037.75 614.375 1050.59 626.071C1056.48 631.429 1095.62 661.647 1096.42 663.865C1097.32 665.803 1097.54 667.511 1097.34 669.631C1095.13 693.495 1087.18 717.746 1081.89 741.113C1079 753.826 1077.74 767.456 1073.4 779.726C1072.61 781.958 1071.89 783.528 1069.82 784.809C1069.39 782.041 1068.3 780.787 1066.3 778.807C1038.53 751.231 1001.99 743.454 964.244 744.118C941.792 727.54 919.35 713.878 893.231 703.732C889.43 702.256 884.325 699.534 880.25 699.613C879.46 699.628 879.011 700.505 878.497 701.063C877.801 697.551 876.5 695.946 874.17 693.354C893.921 679.292 923.557 675.759 947.045 673.773C934.659 652.052 925.966 628.922 918.266 605.225C913.394 599.345 910.518 588.58 907.745 581.465C893.854 545.818 881.217 511.393 879.86 472.645C880.032 466.019 881.96 459.325 883.94 453.046Z"/>
	<path fill="#4F195E" d="M883.94 453.046C888.127 449.559 891.873 446.689 897.588 447.123C902.389 447.487 906.32 450.161 909.349 453.773C914.792 460.265 917.129 469.722 916.221 478.059C915.626 483.514 913.33 488.919 908.877 492.308C906.004 494.495 901.68 496.224 898.045 495.711C892.753 494.965 888.782 491.083 885.8 486.904C882.955 482.917 880.933 477.414 879.86 472.645C880.032 466.019 881.96 459.325 883.94 453.046Z"/>
	<path fill="#4F195E" d="M992.338 450.729C993.853 458.868 994.566 466.428 990.47 473.965C988.761 477.112 986.365 479.452 982.838 480.451C978.635 481.642 973.394 480.645 969.648 478.537C964.526 475.656 961.147 470.268 959.666 464.686C957.802 457.663 958.66 449.478 962.417 443.193C964.562 439.603 967.562 436.933 971.691 435.916C977.256 434.544 981.583 437.197 986.124 440.009C988.39 443.508 990.61 446.921 992.338 450.729Z"/>
	<path fill="#4F195E" d="M918.266 605.225C920.303 605.605 922.146 605.55 923.251 607.608C926.654 613.945 928.429 622.561 930.97 629.399Q937.756 647.653 947.097 664.74C953.569 676.84 960.824 688.142 968.538 699.47C974.787 708.646 982.116 717.953 986.662 728.087C968.783 715.767 957.586 692.326 947.045 673.773C934.659 652.052 925.966 628.922 918.266 605.225Z"/>
	<path fill="#4F195E" d="M937.816 478.316C943.971 477.971 949.627 477.849 955.551 479.829C968.789 484.255 980.906 495.495 986.989 508.024C990.628 515.52 992.44 525.133 989.441 533.159C987.917 537.239 985.068 540.335 981.082 542.105C969.615 547.197 961.357 540.368 951.048 536.397C945.91 540.668 941.892 547.528 935.86 550.494C930.895 552.935 924.238 554.075 918.942 552.08C913.962 550.203 910.694 546.045 908.667 541.26C903.762 529.684 905.318 516.766 910.127 505.443C915.819 492.041 924.497 483.713 937.816 478.316Z"/>
	<path fill="#4F195E" d="M929.176 416.828C931.308 417.069 933.556 417.48 935.594 418.153C941.472 420.094 946.316 425.52 948.947 430.952C952.464 438.21 953.408 447.345 950.601 454.989C948.206 461.512 944.596 464.363 938.469 467.273C936.403 467.119 934.254 466.98 932.23 466.529C927.278 465.426 922.498 460.785 919.905 456.614C915.653 449.774 914.147 440.451 916.185 432.646C918.25 424.733 922.281 420.799 929.176 416.828Z"/>
	<path fill="#F8835B" d="M1536.16 701.319C1558.96 696.005 1597.35 695.231 1617.89 708.036C1619.78 709.216 1620.81 709.664 1621.83 711.667L1623.38 713.857C1625.95 713.735 1627.54 713.081 1629.56 714.822L1629.65 716.481C1642.78 718.519 1655.14 734.575 1662.58 744.771C1667.14 751.002 1678.76 766.416 1677.69 774.319C1689.32 792.862 1687.99 820.779 1683.24 841.3C1677.35 866.738 1661.73 894.316 1639.19 908.487C1637.91 909.296 1636.54 909.945 1635.13 910.506C1634.31 912.52 1632.6 913.688 1630.66 914.563C1629.75 914.972 1628.82 915.266 1627.86 915.528L1626.23 916.71C1618.91 925.99 1600.34 926.915 1589.99 932.095C1579.98 933.826 1542.5 933.135 1532.3 931.298C1530.4 930.957 1528.77 930.038 1527.18 929.004C1529.63 925.203 1528.85 921.135 1528.49 916.841C1527.82 909.046 1526.12 887.673 1520.09 882.604C1521.15 881.798 1521.61 881.025 1522.29 879.903C1520.74 877.906 1518.4 877.862 1515.99 877.238C1516.4 876.318 1516.8 875.197 1516.86 874.181C1517.33 866.242 1507.06 827.185 1504.86 816.798C1499.14 789.701 1494.72 761.928 1487.89 735.112C1487.08 731.918 1486.23 728.894 1484.2 726.243C1491.38 725.805 1501.68 715.177 1508.32 711.621C1516.26 707.371 1525.27 704.432 1533.82 701.672L1536.16 701.319Z"/>
	<path fill="#F8835B" d="M1629.65 716.481C1642.78 718.519 1655.14 734.575 1662.58 744.771C1667.14 751.002 1678.76 766.416 1677.69 774.319C1689.32 792.862 1687.99 820.779 1683.24 841.3C1677.35 866.738 1661.73 894.316 1639.19 908.487C1637.91 909.296 1636.54 909.945 1635.13 910.506C1629.02 905.05 1619.41 892.979 1614.32 886.297C1583.85 846.344 1581.46 788.029 1608.61 745.478C1612.02 740.13 1629.34 721.738 1629.63 717.421C1629.65 717.108 1629.64 716.794 1629.65 716.481Z"/>
	<path fill="#FEFEFE" d="M1623.38 713.857C1625.95 713.735 1627.54 713.081 1629.56 714.822L1629.65 716.481C1629.64 716.794 1629.65 717.108 1629.63 717.421C1629.34 721.738 1612.02 740.13 1608.61 745.478C1581.46 788.029 1583.85 846.344 1614.32 886.297C1619.41 892.979 1629.02 905.05 1635.13 910.506C1634.31 912.52 1632.6 913.688 1630.66 914.563C1629.75 914.972 1628.82 915.266 1627.86 915.528C1629.44 908.276 1617.65 904.005 1614.51 898.653C1606.45 884.931 1597.7 871.761 1591.89 856.853C1576.89 818.311 1583.36 771.835 1606.5 737.807C1610.84 731.431 1622.51 720.948 1623.38 713.857Z"/>
	<path fill="#4F195E" d="M1626.23 916.71C1625.82 916.486 1625.42 916.256 1625.03 915.999C1619.34 912.227 1614.89 904.736 1611 899.211C1596.14 878.103 1586.88 863.637 1581.94 837.587C1575.51 803.7 1583 765.185 1602.16 736.332C1607.98 727.573 1615.88 720.391 1621.83 711.667L1623.38 713.857C1622.51 720.948 1610.84 731.431 1606.5 737.807C1583.36 771.835 1576.89 818.311 1591.89 856.853C1597.7 871.761 1606.45 884.931 1614.51 898.653C1617.65 904.005 1629.44 908.276 1627.86 915.528L1626.23 916.71Z"/>
	<path fill="#4F195E" d="M1533.82 701.672L1536.16 701.319L1538.02 703.319C1538.38 708.431 1530.69 730.717 1529.17 737.365Q1525.39 753.845 1523.36 770.632C1518.93 807.488 1522.6 846.297 1529.1 882.759C1530.9 892.83 1534.24 902.71 1535.7 912.805C1536.1 915.561 1536.95 920.485 1535.5 922.942C1525.06 911.662 1518.52 829.674 1518 809.861C1517.65 796.015 1518.01 781.761 1519.78 768.006C1521.33 755.98 1523.29 743.855 1526.35 732.113C1528.11 725.381 1534.95 707.648 1533.92 702.092C1533.89 701.951 1533.86 701.812 1533.82 701.672Z"/>
	<path fill="#FEFEFE" d="M359.001 821.557C390.319 818.424 428.15 827.581 452.877 847.711C462.432 855.49 475.604 870.291 476.934 882.92C477.147 884.944 476.785 886.67 475.725 888.412C477.336 890.099 477.339 890.99 477.249 893.317C476.899 902.38 472.441 909.356 465.752 915.214C459.475 920.711 451.954 924.826 444.668 928.812C434.956 929.75 425.327 932.216 415.586 933.265C397.018 935.263 378.571 931.705 360.29 928.838C336.513 920.878 318.117 911.407 302.099 891.696C300.41 888.602 299.264 884.945 297.954 881.657L297.403 879.256C296.434 873.462 296.5 868.269 297.898 862.534C299.876 854.423 303.995 846.822 311.253 842.386Q311.648 840.915 312.328 839.552C316.655 831.012 331.519 827.078 340.088 824.524C345.92 822.744 352.91 821.572 359.001 821.557Z"/>
	<path fill="#4F195E" d="M359.001 821.557C390.319 818.424 428.15 827.581 452.877 847.711C462.432 855.49 475.604 870.291 476.934 882.92C477.147 884.944 476.785 886.67 475.725 888.412C469.042 879.602 467.056 868.377 459.423 859.632C437.603 834.633 399.956 826.538 368.47 824.583C352.458 825.05 339.402 826.974 325.125 834.681C320.62 837.113 316.068 840.774 311.253 842.386Q311.648 840.915 312.328 839.552C316.655 831.012 331.519 827.078 340.088 824.524C345.92 822.744 352.91 821.572 359.001 821.557Z"/>
	<path fill="#4F195E" d="M302.954 874.374C310.431 876.347 316.001 883.743 322.419 887.739C342.68 900.354 368.337 907.219 391.856 909.887C408.36 911.759 426.233 911.835 442.625 908.893C448.151 907.902 461.219 900.796 465.912 902.417C467.033 902.805 467.432 904.189 467.992 905.2Q461.546 907.851 454.853 909.797C413.487 921.992 361.967 914.124 324.46 893.616C316.704 889.376 305.577 883.283 302.954 874.374Z"/>
	<path fill="#F8835B" d="M515.958 616.722C519.278 618.041 520.413 619.239 522.236 622.348C524.914 629.857 530.007 637.337 533.808 644.368Q544.646 664.472 554.94 684.86Q566.113 706.755 575.848 729.327C580.055 739.288 583.512 749.757 588.08 759.531C593.255 773.708 601.902 794.071 595.227 808.88Q594.99 809.411 594.727 809.929Q594.464 810.447 594.174 810.951Q593.885 811.455 593.57 811.943Q593.255 812.432 592.915 812.904Q592.576 813.375 592.213 813.829Q591.85 814.283 591.464 814.717Q591.078 815.152 590.67 815.566Q590.263 815.98 589.835 816.373Q589.406 816.766 588.959 817.137Q588.511 817.507 588.045 817.854Q587.579 818.201 587.096 818.524Q586.613 818.847 586.114 819.145Q585.615 819.442 585.101 819.714Q584.587 819.986 584.06 820.231Q583.534 820.476 582.995 820.694Q582.456 820.912 581.907 821.102C571.013 824.917 558.865 821.119 548.174 818.305C539.011 814.626 521.3 812.513 515.421 804.245C511.038 798.869 493.136 791.211 486.096 786.762C478.145 781.737 470.566 776.297 463.039 770.669C478.546 718.571 496.939 667.615 515.958 616.722Z"/>
	<path fill="#4F195E" d="M515.958 616.722C519.278 618.041 520.413 619.239 522.236 622.348C524.914 629.857 530.007 637.337 533.808 644.368Q544.646 664.472 554.94 684.86Q566.113 706.755 575.848 729.327C580.055 739.288 583.512 749.757 588.08 759.531C593.255 773.708 601.902 794.071 595.227 808.88Q594.99 809.411 594.727 809.929Q594.464 810.447 594.174 810.951Q593.885 811.455 593.57 811.943Q593.255 812.432 592.915 812.904Q592.576 813.375 592.213 813.829Q591.85 814.283 591.464 814.717Q591.078 815.152 590.67 815.566Q590.263 815.98 589.835 816.373Q589.406 816.766 588.959 817.137Q588.511 817.507 588.045 817.854Q587.579 818.201 587.096 818.524Q586.613 818.847 586.114 819.145Q585.615 819.442 585.101 819.714Q584.587 819.986 584.06 820.231Q583.534 820.476 582.995 820.694Q582.456 820.912 581.907 821.102C571.013 824.917 558.865 821.119 548.174 818.305C539.011 814.626 521.3 812.513 515.421 804.245C527.441 804.681 538.725 810.824 549.975 814.638C563.405 819.19 574.823 820.402 587.897 813.977C591.995 807.111 593.843 800.953 593.332 792.921C591.49 763.931 552.338 688.6 536.934 659.77C529.755 646.334 519.654 631.452 515.958 616.722Z"/>
	<path fill="#F8835B" d="M1242.94 491.704C1255.47 488.158 1311.76 489.856 1328.3 489.835L1395.03 489.901C1408.69 489.943 1422.56 489.499 1436.17 490.664L1437.51 491.641C1444.47 492.487 1452.12 494.885 1456.63 500.646C1459.95 504.881 1461.01 510.077 1460.33 515.355C1459.51 521.811 1455.72 528.071 1450.54 531.955C1448.49 533.485 1446.09 534.542 1444.09 536.059C1438.19 533.726 1261.31 534.94 1241.7 534.856C1206.57 534.707 1171.24 533.602 1136.14 533.923C1132.44 533.957 1129.01 534.27 1125.57 535.677C1124.94 536.642 1124.35 537.527 1123.87 538.582L1124.37 536.763C1123.11 532.686 1115.93 528.895 1113.09 525.014C1109.97 520.763 1108.85 516.211 1109.77 511.003C1110.85 504.846 1113.56 500.195 1119.11 497.18C1141.75 484.887 1230.87 500.412 1242.94 491.704Z"/>
	<path fill="#4F195E" d="M1242.94 491.704C1255.47 488.158 1311.76 489.856 1328.3 489.835L1395.03 489.901C1408.69 489.943 1422.56 489.499 1436.17 490.664L1437.51 491.641L1437.63 493.217C1436.32 494.34 1435.37 494.25 1433.7 494.4C1405.28 496.961 1375.35 494.285 1346.73 494.26C1315.01 494.232 1281.71 496.669 1250.19 494.39C1246.79 494.144 1245.58 493.905 1242.94 491.704Z"/>
	<path fill="#F8835B" d="M636.846 520.284C665.054 518.774 693.461 513.113 721.319 508.548C734.277 506.426 747.781 503.358 760.922 503.277C766.04 503.246 771.164 503.353 775.184 506.943C780.026 511.268 782.087 519.02 783.306 525.146C790.284 543.445 793.395 560.763 789.9 580.205C786.38 586.259 783.829 587.943 777.317 590.483C747.327 589.587 709.441 561.695 683.78 547.199C670.828 539.882 657.391 533.559 643.901 527.311Q642.606 526.786 641.344 526.186C638.342 524.721 637.852 523.259 636.846 520.284Z"/>
	<path fill="#4F195E" d="M636.846 520.284C649.379 524.155 661.423 530.142 672.946 536.365C691.225 546.238 763.312 593.292 781.089 584.291C784.307 582.662 786.354 580.024 787.391 576.619C791.457 563.263 777.438 532.81 783.306 525.146C790.284 543.445 793.395 560.763 789.9 580.205C786.38 586.259 783.829 587.943 777.317 590.483C747.327 589.587 709.441 561.695 683.78 547.199C670.828 539.882 657.391 533.559 643.901 527.311Q642.606 526.786 641.344 526.186C638.342 524.721 637.852 523.259 636.846 520.284Z"/>
	<path fill="#4F195E" d="M1450.5 561.779C1453.64 563.696 1453.87 565.345 1454.73 568.885C1457.79 581.622 1477.23 673.857 1475.75 678.442L1474.1 680.159C1470.17 671.774 1450.07 569.652 1450.5 561.779Z"/>
	<path fill="#806388" d="M513 374.516C504.909 355.439 504.913 333.591 509.297 313.527Q509.583 312.243 509.901 310.966Q510.218 309.69 510.567 308.421Q510.916 307.153 511.296 305.893Q511.676 304.634 512.086 303.384Q512.497 302.134 512.938 300.895Q513.38 299.656 513.851 298.428Q514.323 297.2 514.824 295.984Q515.326 294.767 515.857 293.564Q516.389 292.361 516.95 291.171Q517.51 289.981 518.1 288.805Q518.69 287.629 519.309 286.468Q519.927 285.307 520.574 284.162Q521.221 283.016 521.896 281.887Q522.571 280.758 523.273 279.646Q523.975 278.533 524.705 277.439Q525.434 276.344 526.19 275.268Q526.947 274.191 527.729 273.134Q528.511 272.076 529.319 271.038Q530.128 270 530.961 268.983Q531.794 267.965 532.652 266.968Q533.511 265.971 534.393 264.995Q535.275 264.02 536.181 263.066Q537.087 262.113 538.017 261.182Q538.946 260.251 539.898 259.343Q540.849 258.435 541.823 257.551Q542.797 256.666 543.792 255.806Q544.788 254.946 545.804 254.111Q546.82 253.276 547.856 252.466Q548.892 251.656 549.948 250.871Q551.004 250.087 552.079 249.329Q553.154 248.57 554.247 247.839Q555.34 247.107 556.451 246.403C575.99 233.988 602.968 225.747 626.037 230.903L630.324 231.142C654.433 234.189 678.088 248.681 693.013 267.741C695.198 270.533 698.236 273.942 699.733 277.129C710.493 293.594 716.516 310.692 718.04 330.339C718.477 335.969 718.006 341.831 718.735 347.393L717.633 349.762L715.524 350.448C716.274 350.954 717.446 351.405 717.595 352.318C719.839 366.013 706.084 392.707 697.933 403.518Q697.159 404.537 696.361 405.537Q695.562 406.536 694.74 407.516Q693.917 408.495 693.07 409.454Q692.223 410.413 691.353 411.351Q690.483 412.289 689.59 413.205Q688.697 414.121 687.781 415.015Q686.866 415.909 685.929 416.78Q684.992 417.651 684.034 418.499Q683.076 419.346 682.097 420.17Q681.118 420.994 680.119 421.793Q679.12 422.593 678.102 423.367Q677.084 424.142 676.047 424.891Q675.01 425.64 673.955 426.364Q672.9 427.087 671.827 427.784Q670.755 428.481 669.665 429.152Q668.576 429.823 667.47 430.466Q666.365 431.109 665.244 431.726Q664.122 432.342 662.986 432.93Q661.85 433.518 660.7 434.078Q659.55 434.638 658.386 435.17Q657.223 435.701 656.047 436.204Q654.87 436.706 653.682 437.18Q652.494 437.654 651.294 438.098Q650.094 438.542 648.884 438.956Q647.674 439.37 646.454 439.755Q645.234 440.139 644.004 440.494Q642.775 440.848 641.538 441.172Q640.3 441.496 639.055 441.789Q637.81 442.082 636.558 442.344Q635.306 442.607 634.048 442.838Q632.79 443.07 631.526 443.27Q630.263 443.471 628.995 443.64C610.96 446.096 581.936 444.656 566.938 433.229C566.364 432.791 565.828 432.339 565.301 431.847L562.752 430.084C558.78 428.993 554.635 425.975 551.253 423.622C537.405 413.985 518.216 395.679 515.168 378.38C514.329 377.304 513.664 375.729 513 374.516Z"/>
	<path fill="#806388" d="M513 374.516C504.909 355.439 504.913 333.591 509.297 313.527Q509.583 312.243 509.901 310.966Q510.218 309.69 510.567 308.421Q510.916 307.153 511.296 305.893Q511.676 304.634 512.086 303.384Q512.497 302.134 512.938 300.895Q513.38 299.656 513.851 298.428Q514.323 297.2 514.824 295.984Q515.326 294.767 515.857 293.564Q516.389 292.361 516.95 291.171Q517.51 289.981 518.1 288.805Q518.69 287.629 519.309 286.468Q519.927 285.307 520.574 284.162Q521.221 283.016 521.896 281.887Q522.571 280.758 523.273 279.646Q523.975 278.533 524.705 277.439Q525.434 276.344 526.19 275.268Q526.947 274.191 527.729 273.134Q528.511 272.076 529.319 271.038Q530.128 270 530.961 268.983Q531.794 267.965 532.652 266.968Q533.511 265.971 534.393 264.995Q535.275 264.02 536.181 263.066Q537.087 262.113 538.017 261.182Q538.946 260.251 539.898 259.343Q540.849 258.435 541.823 257.551Q542.797 256.666 543.792 255.806Q544.788 254.946 545.804 254.111Q546.82 253.276 547.856 252.466Q548.892 251.656 549.948 250.871Q551.004 250.087 552.079 249.329Q553.154 248.57 554.247 247.839Q555.34 247.107 556.451 246.403C575.99 233.988 602.968 225.747 626.037 230.903C619.461 277.947 606.659 319.083 567.131 348.76C550.175 361.491 532.174 366.682 513 374.516Z"/>
	<path fill="#4F195E" d="M715.524 350.448C716.274 350.954 717.446 351.405 717.595 352.318C719.839 366.013 706.084 392.707 697.933 403.518Q697.159 404.537 696.361 405.537Q695.562 406.536 694.74 407.516Q693.917 408.495 693.07 409.454Q692.223 410.413 691.353 411.351Q690.483 412.289 689.59 413.205Q688.697 414.121 687.781 415.015Q686.866 415.909 685.929 416.78Q684.992 417.651 684.034 418.499Q683.076 419.346 682.097 420.17Q681.118 420.994 680.119 421.793Q679.12 422.593 678.102 423.367Q677.084 424.142 676.047 424.891Q675.01 425.64 673.955 426.364Q672.9 427.087 671.827 427.784Q670.755 428.481 669.665 429.152Q668.576 429.823 667.47 430.466Q666.365 431.109 665.244 431.726Q664.122 432.342 662.986 432.93Q661.85 433.518 660.7 434.078Q659.55 434.638 658.386 435.17Q657.223 435.701 656.047 436.204Q654.87 436.706 653.682 437.18Q652.494 437.654 651.294 438.098Q650.094 438.542 648.884 438.956Q647.674 439.37 646.454 439.755Q645.234 440.139 644.004 440.494Q642.775 440.848 641.538 441.172Q640.3 441.496 639.055 441.789Q637.81 442.082 636.558 442.344Q635.306 442.607 634.048 442.838Q632.79 443.07 631.526 443.27Q630.263 443.471 628.995 443.64C610.96 446.096 581.936 444.656 566.938 433.229C566.364 432.791 565.828 432.339 565.301 431.847L567.668 431.062C598.872 391.086 642.415 368.38 690.477 355.006C698.784 353.314 707.179 351.947 715.524 350.448Z"/>
	<path fill="#806388" d="M567.668 431.062C598.872 391.086 642.415 368.38 690.477 355.006C676.84 385.631 652.963 410.585 621.421 422.775C604.191 429.434 586.039 431.459 567.668 431.062Z"/>
	<path fill="#4F195E" d="M693.817 349.908C694.129 338.28 700.012 326.915 700.934 315.062C701.911 302.497 697.838 289.486 699.733 277.129C710.493 293.594 716.516 310.692 718.04 330.339C718.477 335.969 718.006 341.831 718.735 347.393C711.161 345.567 701.222 347.652 693.817 349.908Z"/>
	<path fill="#FEFEFE" d="M626.037 230.903L630.324 231.142C626.009 276.85 610.453 319.116 574.225 349.081C556.566 363.687 536.875 371.726 515.168 378.38C514.329 377.304 513.664 375.729 513 374.516C532.174 366.682 550.175 361.491 567.131 348.76C606.659 319.083 619.461 277.947 626.037 230.903Z"/>
	<path fill="#FEFEFE" d="M693.817 349.908C701.222 347.652 711.161 345.567 718.735 347.393L717.633 349.762L715.524 350.448C707.179 351.947 698.784 353.314 690.477 355.006C642.415 368.38 598.872 391.086 567.668 431.062L565.301 431.847L562.752 430.084C592.564 387.453 644.292 361.508 693.817 349.908Z"/>
	<path fill="#FEFEFE" d="M335.373 435.766C338.433 436.415 341.631 437.261 344.771 437.252C346.212 437.247 346.848 437.413 347.915 436.36C338.944 429.77 327.246 428.34 319.148 420.125C312.688 413.572 311.336 406.084 311.414 397.165C311.501 387.074 314.787 377.296 322.229 370.255C329.109 363.744 338.77 360.265 348.208 360.576C362.222 361.039 371.793 369.364 380.962 378.953Q382.565 377.732 384.279 376.675C388.134 374.316 395.96 369.681 400.724 371.164C402.439 371.698 402.608 372.521 403.401 373.943C415.039 374.798 425.092 377.836 432.898 387.018C439.074 394.281 441.652 403.452 440.725 412.886C439.822 422.073 435.65 430.821 428.449 436.712C423.302 440.922 416.562 443.711 409.913 444.201C409.812 444.372 409.718 444.547 409.609 444.714C405.407 451.162 395.44 452.046 391.705 459.325C387.549 467.423 362.392 582.029 363.673 587.523C365.37 594.806 377.088 605.136 377.444 608.441C377.483 608.798 376.702 610.346 376.534 610.777C385.14 621.147 393.082 631.027 391.708 645.39Q391.626 646.282 391.499 647.17Q391.373 648.057 391.203 648.937Q391.032 649.817 390.818 650.687Q390.605 651.558 390.348 652.417Q390.091 653.275 389.792 654.12Q389.493 654.965 389.153 655.794Q388.812 656.623 388.431 657.434Q388.049 658.245 387.628 659.036Q387.207 659.827 386.747 660.596Q386.287 661.366 385.79 662.111Q385.292 662.857 384.759 663.577Q384.225 664.296 383.656 664.989Q383.087 665.681 382.484 666.344Q381.882 667.008 381.247 667.64Q380.612 668.273 379.947 668.873Q379.281 669.474 378.587 670.04Q377.873 670.609 377.133 671.144Q376.392 671.678 375.627 672.176Q374.861 672.673 374.072 673.133Q373.283 673.593 372.473 674.014Q371.663 674.435 370.833 674.816Q370.003 675.197 369.156 675.537Q368.308 675.878 367.446 676.176Q366.583 676.475 365.706 676.732Q364.83 676.988 363.942 677.202Q363.055 677.415 362.157 677.585Q361.26 677.756 360.356 677.882Q359.452 678.008 358.542 678.091Q357.633 678.173 356.721 678.211Q355.809 678.249 354.895 678.243Q353.982 678.236 353.071 678.186Q352.159 678.135 351.251 678.04C342.633 677.125 336.492 670.642 328.767 667.321C326.353 667.321 326.311 667.488 324.612 665.815C322.846 661.951 323.482 657.108 323.585 652.94C314.94 657.138 305.757 661.57 296.007 662.093Q295.242 662.139 294.475 662.146Q293.709 662.153 292.943 662.121Q292.177 662.089 291.413 662.018Q290.65 661.947 289.891 661.837Q289.133 661.727 288.381 661.579Q287.628 661.431 286.885 661.245Q286.141 661.059 285.408 660.836Q284.675 660.612 283.954 660.351Q283.233 660.091 282.526 659.794Q281.819 659.497 281.128 659.164Q280.438 658.832 279.765 658.465Q279.092 658.098 278.438 657.697Q277.785 657.296 277.152 656.862Q276.52 656.429 275.911 655.964Q275.301 655.499 274.716 655.003Q274.131 654.508 273.572 653.983Q272.922 653.379 272.302 652.744Q271.682 652.109 271.095 651.444Q270.508 650.779 269.954 650.086Q269.4 649.393 268.881 648.673Q268.362 647.954 267.879 647.209Q267.396 646.465 266.951 645.697Q266.505 644.93 266.098 644.141Q265.691 643.353 265.324 642.545Q264.956 641.738 264.629 640.913Q264.302 640.088 264.016 639.248Q263.73 638.408 263.486 637.555Q263.242 636.702 263.04 635.838Q262.839 634.974 262.68 634.101Q262.521 633.228 262.406 632.348Q262.29 631.468 262.219 630.583Q262.147 629.699 262.119 628.812C261.882 619.222 265.885 608.2 272.58 601.263C275.718 598.012 283.179 592.856 287.811 592.776C288.131 591.74 288.66 591.119 289.296 590.262C292.758 588.096 297.587 588.109 301.576 587.681C302.52 574.974 308.69 554.088 311.587 541.058Q323.11 488.328 335.373 435.766Z"/>
	<path fill="#4F195E" d="M376.534 610.777L375.507 610.088C368.626 605.416 362.23 599.104 360.76 590.535C358.563 577.73 382.754 466.128 390.724 454.947C395.572 448.145 401.875 445.506 409.913 444.201C409.812 444.372 409.718 444.547 409.609 444.714C405.407 451.162 395.44 452.046 391.705 459.325C387.549 467.423 362.392 582.029 363.673 587.523C365.37 594.806 377.088 605.136 377.444 608.441C377.483 608.798 376.702 610.346 376.534 610.777Z"/>
	<path fill="#4F195E" d="M380.962 378.953Q382.565 377.732 384.279 376.675C388.134 374.316 395.96 369.681 400.724 371.164C402.439 371.698 402.608 372.521 403.401 373.943C394.278 376.22 387.229 382.312 378.601 384.492L377.837 383.604C378.618 381.719 379.598 380.458 380.962 378.953Z"/>
	<path fill="#4F195E" d="M323.585 652.94C324.199 650.293 324.636 648.048 326.37 645.859C327.868 647.18 327.678 649.281 327.789 651.239C328.102 656.735 327.304 661.898 328.767 667.321C326.353 667.321 326.311 667.488 324.612 665.815C322.846 661.951 323.482 657.108 323.585 652.94Z"/>
	<path fill="#4F195E" d="M287.811 592.776C288.131 591.74 288.66 591.119 289.296 590.262C292.758 588.096 297.587 588.109 301.576 587.681C303.839 588.275 306.126 588.589 307.824 590.301C305.367 592.942 297.912 592.695 294.238 592.817Q291.024 592.924 287.811 592.776Z"/>
</svg>
